<svg width="453" height="459" viewBox="0 0 453 459" fill="none" xmlns="http://www.w3.org/2000/svg">
<g clip-path="url(#clip0_309_1700)">
<rect x="47.4995" y="21.5" width="357" height="415" rx="9.5" fill="#E6F0FF" stroke="#96C0FF" stroke-linecap="round"/>
<path d="M1046 507C1045.75 507 1045.51 506.913 1045.33 506.758C1045.15 506.603 1045.05 506.392 1045.05 506.173V150.868H958.814V327.099H920.892V209.209H860.026V389.094H823.412V282.136H797.265V393.956H778.019V287.973H754.545V393.939H715.258V378.13H655.397V241.125H559.605V376.94H408.162V149.645H300.576V250.518H234.648V133.654H133.68V400.025H107.76V262.771H16.1775V331.96H-33.1216V480.26H-90.2516C-90.5016 480.256 -90.7399 480.168 -90.9167 480.013C-91.0934 479.859 -91.1949 479.651 -91.1997 479.434C-91.1997 479.214 -91.0998 479.004 -90.922 478.849C-90.7442 478.694 -90.5031 478.607 -90.2516 478.607H-35.1125V330.307H14.2814V261.035H109.656V398.289H131.784V132H236.544V248.881H298.737V148.007H410.115V375.286H557.766V239.471H657.293V376.493H717.154V392.302H752.649V286.319H779.915V392.286H795.369V280.482H825.308V387.441H858.13V207.556H922.769V325.445H956.899V149.215H1046.95V506.256C1046.92 506.461 1046.81 506.65 1046.64 506.788C1046.46 506.925 1046.23 507.001 1046 507Z" fill="#6BA6FF"/>
<path d="M61.5913 368.424H49.0011V354.616H61.5913V368.424ZM50.8972 366.77H59.6952V356.269H50.8972V366.77Z" fill="#6BA6FF"/>
<path d="M78.9424 368.424H66.3711V354.616H78.9424V368.424ZM68.2672 366.77H77.0463V356.269H68.2672V366.77Z" fill="#6BA6FF"/>
<path d="M160.376 278.48H147.804V264.672H160.376V278.48ZM149.7 276.827H158.479V266.326H149.7V276.827Z" fill="#6BA6FF"/>
<path d="M177.765 278.48H165.174V264.672H177.765V278.48ZM167.07 276.827H175.868V266.326H167.07V276.827Z" fill="#6BA6FF"/>
<path d="M195.094 278.48H182.523V264.672H195.094V278.48ZM184.419 276.827H193.198V266.326H184.419V276.827Z" fill="#6BA6FF"/>
<path d="M212.468 278.48H199.877V264.672H212.468V278.48ZM201.774 276.827H210.572V266.326H201.774V276.827Z" fill="#6BA6FF"/>
<path d="M160.376 256.553H147.804V242.745H160.376V256.553ZM149.7 254.9H158.479V244.399H149.7V254.9Z" fill="#6BA6FF"/>
<path d="M177.765 256.553H165.174V242.745H177.765V256.553ZM167.07 254.9H175.868V244.399H167.07V254.9Z" fill="#6BA6FF"/>
<path d="M195.094 256.553H182.523V242.745H195.094V256.553ZM184.419 254.9H193.198V244.399H184.419V254.9Z" fill="#6BA6FF"/>
<path d="M212.468 256.553H199.877V242.745H212.468V256.553ZM201.774 254.9H210.572V244.399H201.774V254.9Z" fill="#6BA6FF"/>
<path d="M160.376 234.725H147.804V220.917H160.376V234.725ZM149.7 233.072H158.479V222.571H149.7V233.072Z" fill="#6BA6FF"/>
<path d="M177.765 234.725H165.174V220.917H177.765V234.725ZM167.07 233.072H175.868V222.571H167.07V233.072Z" fill="#6BA6FF"/>
<path d="M195.094 234.725H182.523V220.917H195.094V234.725ZM184.419 233.072H193.198V222.571H184.419V233.072Z" fill="#6BA6FF"/>
<path d="M212.468 234.725H199.877V220.917H212.468V234.725ZM201.774 233.072H210.572V222.571H201.774V233.072Z" fill="#6BA6FF"/>
<path d="M160.376 212.847H147.804V199.039H160.376V212.847ZM149.7 211.194H158.479V200.693H149.7V211.194Z" fill="#6BA6FF"/>
<path d="M177.765 212.847H165.174V199.039H177.765V212.847ZM167.07 211.194H175.868V200.693H167.07V211.194Z" fill="#6BA6FF"/>
<path d="M195.094 212.847H182.523V199.039H195.094V212.847ZM184.419 211.194H193.198V200.693H184.419V211.194Z" fill="#6BA6FF"/>
<path d="M212.468 212.847H199.877V199.039H212.468V212.847ZM201.774 211.194H210.572V200.693H201.774V211.194Z" fill="#6BA6FF"/>
<path d="M160.376 190.969H147.804V177.178H160.376V190.969ZM149.7 189.316H158.479V178.831H149.7V189.316Z" fill="#6BA6FF"/>
<path d="M177.765 190.969H165.174V177.178H177.765V190.969ZM167.07 189.316H175.868V178.831H167.07V189.316Z" fill="#6BA6FF"/>
<path d="M195.094 190.969H182.523V177.178H195.094V190.969ZM184.419 189.316H193.198V178.831H184.419V189.316Z" fill="#6BA6FF"/>
<path d="M212.468 190.969H199.877V177.178H212.468V190.969ZM201.774 189.316H210.572V178.831H201.774V189.316Z" fill="#6BA6FF"/>
<path d="M229.813 278.48H217.242V264.672H229.813V278.48ZM219.138 276.827H227.917V266.326H219.138V276.827Z" fill="#6BA6FF"/>
<path d="M247.156 278.48H234.641V264.672H247.212L247.156 278.48ZM236.48 276.827H245.259V266.326H236.537L236.48 276.827Z" fill="#6BA6FF"/>
<path d="M160.376 302.856H147.804V289.048H160.376V302.856ZM149.7 301.202H158.479V290.702H149.7V301.202Z" fill="#6BA6FF"/>
<path d="M177.765 302.856H165.174V289.048H177.765V302.856ZM167.07 301.202H175.868V290.702H167.07V301.202Z" fill="#6BA6FF"/>
<path d="M195.094 302.856H182.523V289.048H195.094V302.856ZM184.419 301.202H193.198V290.702H184.419V301.202Z" fill="#6BA6FF"/>
<path d="M212.468 302.856H199.877V289.048H212.468V302.856ZM201.774 301.202H210.572V290.702H201.774V301.202Z" fill="#6BA6FF"/>
<path d="M229.813 302.856H217.242V289.048H229.813V302.856ZM219.138 301.202H227.917V290.702H219.138V301.202Z" fill="#6BA6FF"/>
<path d="M247.156 302.856H234.641V289.048H247.212L247.156 302.856ZM236.537 301.202H245.316V290.702H236.537V301.202Z" fill="#6BA6FF"/>
<path d="M61.5913 393.956H49.0011V380.148H61.5913V393.956ZM50.8972 392.302H59.6952V381.802H50.8972V392.302Z" fill="#6BA6FF"/>
<path d="M78.9424 393.956H66.3711V380.148H78.9424V393.956ZM68.2672 392.302H77.0463V381.802H68.2672V392.302Z" fill="#6BA6FF"/>
<path d="M61.5913 419.488H49.0011V405.68H61.5913V419.488ZM50.8972 417.835H59.6952V407.334H50.8972V417.835Z" fill="#6BA6FF"/>
<path d="M78.9424 419.488H66.3711V405.68H78.9424V419.488ZM68.2672 417.835H77.0463V407.334H68.2672V417.835Z" fill="#6BA6FF"/>
<path d="M61.5913 445.071H49.0011V431.263H61.5913V445.071ZM50.8972 443.417H59.6952V432.916H50.8972V443.417Z" fill="#6BA6FF"/>
<path d="M78.9424 445.071H66.3711V431.263H78.9424V445.071ZM68.2672 443.417H77.0463V432.916H68.2672V443.417Z" fill="#6BA6FF"/>
<path d="M349.799 188.539H337.228V174.731H349.799V188.539ZM339.124 186.885H347.903V176.384H339.124V186.885Z" fill="#6BA6FF"/>
<path d="M367.15 188.539H354.579V174.731H367.15V188.539ZM356.475 186.885H365.254V176.384H356.475V186.885Z" fill="#6BA6FF"/>
<path d="M349.799 218.933H337.228V205.125H349.799V218.933ZM339.124 217.279H347.903V206.778H339.124V217.279Z" fill="#6BA6FF"/>
<path d="M367.15 218.933H354.579V205.125H367.15V218.933ZM356.475 217.279H365.254V206.778H356.475V217.279Z" fill="#6BA6FF"/>
<path d="M349.799 249.31H337.228V235.502H349.799V249.31ZM339.124 247.657H347.903V237.156H339.124V247.657Z" fill="#6BA6FF"/>
<path d="M367.15 249.31H354.579V235.502H367.15V249.31ZM356.475 247.657H365.254V237.156H356.475V247.657Z" fill="#6BA6FF"/>
<path d="M349.799 279.705H337.228V265.897H349.799V279.705ZM339.124 278.051H347.903V267.55H339.124V278.051Z" fill="#6BA6FF"/>
<path d="M367.15 279.705H354.579V265.897H367.15V279.705ZM356.475 278.051H365.254V267.55H356.475V278.051Z" fill="#6BA6FF"/>
<path d="M349.799 310.082H337.228V296.241H349.799V310.082ZM339.124 308.428H347.903V297.894H339.124V308.428Z" fill="#6BA6FF"/>
<path d="M367.15 310.082H354.579V296.241H367.15V310.082ZM356.475 308.428H365.254V297.894H356.475V308.428Z" fill="#6BA6FF"/>
<path d="M349.799 340.477H337.228V326.668H349.799V340.477ZM339.124 338.823H347.903V328.322H339.124V338.823Z" fill="#6BA6FF"/>
<path d="M367.15 340.477H354.579V326.668H367.15V340.477ZM356.475 338.823H365.254V328.322H356.475V338.823Z" fill="#6BA6FF"/>
<path d="M349.799 370.854H337.228V357.046H349.799V370.854ZM339.124 369.2H347.903V358.699H339.124V369.2Z" fill="#6BA6FF"/>
<path d="M367.15 370.854H354.579V357.046H367.15V370.854ZM356.475 369.2H365.254V358.699H356.475V369.2Z" fill="#6BA6FF"/>
<path d="M349.799 401.248H337.228V387.44H349.799V401.248ZM339.124 399.595H347.903V389.094H339.124V399.595Z" fill="#6BA6FF"/>
<path d="M367.15 401.248H354.579V387.44H367.15V401.248ZM356.475 399.595H365.254V389.094H356.475V399.595Z" fill="#6BA6FF"/>
<path d="M349.799 431.642H337.228V417.834H349.799V431.642ZM339.124 429.989H347.903V419.488H339.124V429.989Z" fill="#6BA6FF"/>
<path d="M367.15 431.642H354.579V417.834H367.15V431.642ZM356.475 429.989H365.254V419.488H356.475V429.989Z" fill="#6BA6FF"/>
<path d="M167.887 99.541H45.429L48.5885 95.2905C50.2462 93.0944 52.754 93.1086 54.5818 93.1227C55.3457 93.2121 56.12 93.1098 56.8345 92.8252C57.3493 92.2826 57.7878 91.6725 58.138 91.0116C60.0102 87.5886 62.7771 84.7384 66.1432 82.7656C69.7562 80.6403 73.6242 81.3487 76.4437 81.9155C79.2632 82.4822 80.4959 82.5672 80.8501 81.2637C82.2669 76.0356 85.8515 70.7366 91.6464 71.5017C93.3342 71.7706 95.0008 72.1589 96.6337 72.6635C101.522 74.0803 104.582 74.6612 105.928 71.5442C108.266 66.061 112.701 59.0618 124.064 61.4987C134.959 63.8224 139.649 75.7522 139.975 76.5598C142.299 81.5329 146.719 81.0937 151.848 80.5695C156.297 80.1303 160.902 79.6627 164.458 82.8506C172.081 89.6656 168.142 98.9885 168.099 99.0735L167.887 99.541ZM48.2343 98.1242H166.938C167.861 95.6899 168.025 93.0328 167.408 90.5035C166.791 87.9741 165.421 85.6912 163.481 83.9557C160.392 81.122 156.113 81.6038 151.962 82.0288C146.762 82.5531 141.392 83.0915 138.657 77.1691C138.657 77.0415 134.038 65.1684 123.766 63.0006C113.494 60.8328 109.598 66.7836 107.232 72.2243C105.305 76.7157 100.7 75.4122 96.2512 74.1653C94.677 73.6817 93.0724 73.3031 91.4481 73.0319C85.3131 72.2243 82.8195 79.5068 82.2102 81.7596C81.4735 84.4516 78.909 83.9557 76.1887 83.4315C73.4683 82.9073 70.0112 82.2555 66.8658 84.1116C63.7068 85.9716 61.1078 88.649 59.3424 91.8617C58.9227 92.6936 58.3618 93.4462 57.6847 94.0862C56.7324 94.6023 55.6418 94.8056 54.5676 94.6671C52.7965 94.6671 50.9405 94.6671 49.722 96.2681L48.2343 98.1242Z" fill="#6BA6FF"/>
<path d="M522.098 127.51H308.622L313.524 120.964C316.259 117.337 320.325 117.365 323.598 117.379C325.044 117.57 326.514 117.359 327.848 116.77C328.825 115.785 329.647 114.658 330.285 113.426C333.524 107.501 338.314 102.569 344.142 99.1587C350.305 95.5315 356.71 96.75 361.853 97.7418C366.996 98.7336 369.404 99.0453 370.17 96.2116C372.621 87.2572 378.671 78.161 388.589 79.4787C391.508 79.9484 394.391 80.6207 397.217 81.4906C404.854 83.6442 411.456 85.5003 414.219 79.2095C418.257 69.7733 425.908 57.7159 445.39 61.8956C464.149 65.9053 472.508 87.158 472.919 87.9939C477.17 97.1042 485.458 96.2683 494.285 95.3757C501.979 94.5964 509.871 93.803 515.991 99.2437C529.069 110.933 522.325 126.929 522.254 127.085L522.098 127.51ZM311.484 126.093H521.177C522.098 123.528 526.348 110.394 515.014 100.292C509.346 95.2765 501.766 96.0416 494.384 96.7925C485.444 97.6851 476.206 98.6203 471.573 88.5748C471.488 88.3623 463.37 67.3221 445.05 63.3408C426.73 59.3595 419.547 70.085 415.438 79.8187C412.236 87.2713 404.386 85.0469 396.806 82.9074C394.02 82.0558 391.18 81.3931 388.305 80.9239C377.084 79.422 372.621 92.5703 371.516 96.6225C370.41 100.675 366.287 100.08 361.598 99.1728C356.908 98.266 350.575 97.0759 344.879 100.434C339.261 103.735 334.64 108.494 331.504 114.206C330.781 115.61 329.823 116.88 328.67 117.96C327.452 118.881 325.652 118.867 323.555 118.853C320.438 118.853 316.925 118.853 314.615 121.871L311.484 126.093Z" fill="#6BA6FF"/>
</g>
<path d="M249.448 82.8651C254.62 82.8651 258.813 78.6724 258.813 73.5004C258.813 68.3284 254.62 64.1357 249.448 64.1357C244.276 64.1357 240.083 68.3284 240.083 73.5004C240.083 78.6724 244.276 82.8651 249.448 82.8651Z" fill="white"/>
<path d="M249.448 65.3877C251.053 65.3877 252.621 65.8635 253.955 66.755C255.289 67.6464 256.329 68.9134 256.943 70.3958C257.557 71.8782 257.718 73.5094 257.405 75.0831C257.092 76.6568 256.319 78.1024 255.185 79.237C254.05 80.3716 252.605 81.1442 251.031 81.4572C249.457 81.7703 247.826 81.6096 246.344 80.9956C244.861 80.3816 243.594 79.3417 242.703 78.0076C241.811 76.6735 241.335 75.105 241.335 73.5004C241.338 71.3495 242.193 69.2873 243.714 67.7663C245.235 66.2454 247.297 65.3899 249.448 65.3877ZM249.448 62.8838C247.348 62.8838 245.296 63.5064 243.55 64.673C241.804 65.8396 240.443 67.4977 239.64 69.4376C238.836 71.3775 238.626 73.5122 239.036 75.5716C239.445 77.631 240.456 79.5227 241.941 81.0075C243.426 82.4923 245.318 83.5034 247.377 83.9131C249.436 84.3227 251.571 84.1125 253.511 83.3089C255.451 82.5054 257.109 81.1446 258.276 79.3987C259.442 77.6528 260.065 75.6002 260.065 73.5004C260.066 72.1059 259.792 70.7249 259.259 69.4363C258.726 68.1477 257.944 66.9769 256.958 65.9909C255.972 65.0048 254.801 64.2228 253.512 63.6897C252.224 63.1565 250.843 62.8827 249.448 62.8838Z" fill="#0047B3"/>
<path d="M120.49 396.014L157.281 268.372C158.565 263.904 161.14 259.914 164.684 256.904L164.784 256.813L164.868 256.704C166.239 254.888 167.863 253.277 169.692 251.922L212.092 220.539C216.163 217.51 221.106 215.879 226.18 215.89C229.89 215.896 233.547 216.768 236.861 218.436C240.174 220.103 243.053 222.521 245.269 225.497C247.121 228 248.463 230.844 249.216 233.866C249.97 236.887 250.12 240.028 249.66 243.108C249.2 246.188 248.137 249.147 246.533 251.817C244.929 254.486 242.814 256.813 240.311 258.666L201.083 287.703L166.069 409.168L120.49 396.014Z" fill="#0065FF"/>
<path d="M226.179 217.159C230.905 217.163 235.508 218.657 239.335 221.429C243.162 224.2 246.018 228.107 247.497 232.595C248.976 237.082 249.003 241.922 247.573 246.426C246.143 250.929 243.33 254.868 239.534 257.681L200.639 286.467L199.955 286.968L199.721 287.803L165.217 407.624L122.041 395.179L158.482 268.74C159.699 264.511 162.138 260.736 165.493 257.889L165.701 257.706L165.868 257.489C167.168 255.77 168.705 254.244 170.434 252.956L212.842 221.574C216.699 218.699 221.385 217.153 226.196 217.167M226.196 214.663C220.854 214.66 215.654 216.378 211.365 219.562L168.965 250.937C167.042 252.357 165.331 254.043 163.882 255.944C160.153 259.118 157.444 263.323 156.095 268.03L118.945 396.89L166.928 410.72L202.159 288.479L241.044 259.692C245.285 256.571 248.431 252.189 250.031 247.173C251.632 242.156 251.605 236.762 249.955 231.762C248.305 226.762 245.116 222.411 240.844 219.333C236.572 216.254 231.437 214.605 226.171 214.621L226.196 214.663Z" fill="#0047B3"/>
<path d="M166.143 407.207L158.415 441.919C157.68 444.139 154.166 445.859 151.003 444.682L48.9931 414.051C48.3514 413.809 47.8088 413.36 47.4512 412.774C47.0937 412.189 46.9417 411.501 47.0193 410.82C47.0969 410.139 47.3997 409.503 47.8798 409.013C48.3598 408.523 48.9895 408.208 49.6692 408.116L119.011 392.901L166.143 407.207Z" fill="white" stroke="#0047B3" stroke-width="3" stroke-miterlimit="10"/>
<path d="M179.557 284.732C176.648 280.947 174.955 276.369 174.7 271.603V271.469V271.344C173.404 266.558 173.65 261.485 175.401 256.846L197.936 196.861C199.029 193.944 200.686 191.271 202.813 188.995C204.941 186.72 207.496 184.886 210.333 183.6C213.17 182.314 216.233 181.6 219.346 181.499C222.459 181.399 225.562 181.913 228.476 183.014C234.364 185.228 239.131 189.69 241.729 195.419C244.327 201.147 244.544 207.673 242.331 213.562L223.393 263.924L298.026 361.31L260.367 390.172L179.557 284.732Z" fill="#0065FF"/>
<path d="M220.117 182.738C223.748 182.741 227.325 183.623 230.541 185.31C233.757 186.997 236.516 189.438 238.583 192.424C240.649 195.41 241.962 198.853 242.407 202.457C242.853 206.061 242.418 209.719 241.141 213.119L222.445 262.83L221.953 264.132L222.788 265.234L296.236 361.076L260.58 388.402L180.546 283.963C177.788 280.383 176.182 276.049 175.939 271.535V271.268L175.872 271.018C174.641 266.483 174.875 261.674 176.54 257.28L199.076 197.303C200.692 193.029 203.569 189.347 207.325 186.746C211.081 184.145 215.539 182.747 220.108 182.738M220.108 180.234C215.029 180.236 210.07 181.787 205.894 184.68C201.719 187.573 198.525 191.671 196.739 196.426L174.203 256.403C172.35 261.279 172.082 266.615 173.435 271.652C173.699 276.67 175.48 281.49 178.543 285.474L260.113 391.899L299.75 361.526L224.791 263.715L243.478 213.995C244.633 210.926 245.172 207.66 245.064 204.383C244.956 201.106 244.204 197.882 242.85 194.895C241.495 191.909 239.566 189.219 237.172 186.978C234.778 184.737 231.967 182.99 228.897 181.837C226.09 180.78 223.116 180.237 220.117 180.234H220.108Z" fill="#0047B3"/>
<path d="M296.472 360.124L319.801 386.916C321.144 388.828 320.443 392.675 317.614 394.528L232.372 458.37C231.798 458.747 231.114 458.921 230.43 458.865C229.745 458.808 229.099 458.523 228.596 458.056C228.092 457.588 227.759 456.966 227.651 456.288C227.543 455.609 227.665 454.914 227.998 454.313L256.961 389.495L296.472 360.124Z" fill="white" stroke="#0047B3" stroke-width="3" stroke-miterlimit="10"/>
<path d="M74.5094 402.783H73.5913C79.1553 405.308 84.5254 408.24 89.6581 411.555" stroke="#0047B3" stroke-width="3" stroke-miterlimit="10"/>
<path d="M88.6987 399.503L102.988 407.465" stroke="#0047B3" stroke-width="3" stroke-miterlimit="10"/>
<path d="M244.784 421.671C244.441 419.839 243.71 418.102 242.64 416.576C241.571 415.05 240.187 413.771 238.583 412.824C237.892 412.358 237.115 412.035 236.298 411.875C235.481 411.714 234.64 411.719 233.825 411.889C233.011 412.181 232.281 412.669 231.699 413.309C231.116 413.949 230.7 414.723 230.487 415.561C230.069 417.247 230.018 419.003 230.336 420.711C230.568 423.114 231.372 425.426 232.682 427.455C233.353 428.455 234.269 429.266 235.343 429.811C236.417 430.356 237.613 430.617 238.816 430.568C241.821 430.259 243.958 427.622 245.744 425.193C245.368 425.702 244.692 424.884 244.625 424.258C243.824 416.942 245.684 409.582 249.867 403.526C250.56 402.541 251.536 401.497 252.696 401.539C254.182 401.581 255.058 403.208 255.492 404.611C257.47 411.104 256.018 419.075 250.484 422.973C249.964 423.409 249.358 423.732 248.705 423.92C248.053 424.108 247.368 424.158 246.695 424.066C245.376 423.757 244.35 422.138 245.068 420.986C251.845 427.485 258.294 434.299 264.415 441.427C258.277 433.561 251.123 426.544 243.14 420.561L252.73 449.347" stroke="#0047B3" stroke-width="3" stroke-miterlimit="10"/>
<path d="M98.7364 389.621C97.8247 387.82 96.473 386.28 94.8066 385.142C93.1403 384.003 91.2134 383.305 89.2048 383.11C87.9163 382.908 86.5991 383.206 85.5241 383.945C83.8548 385.306 83.9883 387.86 84.4307 389.963C84.7686 392.116 85.6283 394.153 86.9346 395.897C88.3201 397.566 90.5903 398.651 92.6853 398.109C95.8152 397.274 97.0755 393.56 97.4845 390.355C97.8934 387.15 98.1772 383.494 100.706 381.475C100.966 381.23 101.279 381.049 101.621 380.948C101.964 380.846 102.325 380.827 102.676 380.89C103.039 381.057 103.36 381.302 103.617 381.608C103.874 381.914 104.06 382.273 104.162 382.66C105.356 385.703 106.055 388.918 106.232 392.183C106.305 392.689 106.229 393.205 106.014 393.669C105.522 394.503 104.345 394.612 103.327 394.42C101.896 394.149 100.547 393.549 99.3884 392.667C98.2294 391.784 97.2918 390.644 96.6498 389.337C101.658 396.57 106.315 404.024 110.622 411.697C106.226 404.102 101.585 396.648 96.6999 389.337C99.6558 398.41 101.639 407.772 102.618 417.264" stroke="#0047B3" stroke-width="3" stroke-miterlimit="10"/>
<path d="M112.592 233.61C109.786 233.61 107.049 232.741 104.758 231.121C102.466 229.502 100.733 227.212 99.7969 224.567C98.8606 221.922 98.7672 219.052 99.5295 216.351C100.292 213.651 101.872 211.254 104.053 209.489L150.668 171.804L178.211 115.149C179.784 111.908 182.58 109.425 185.983 108.246C189.387 107.066 193.12 107.287 196.36 108.86C199.601 110.433 202.084 113.229 203.264 116.632C204.443 120.036 204.222 123.769 202.649 127.009L176.375 181.077V181.269C175.903 184.673 174.154 187.77 171.484 189.933L121.113 230.597C118.707 232.556 115.695 233.621 112.592 233.61Z" fill="white"/>
<path d="M190.424 108.755C192.511 108.759 194.563 109.293 196.387 110.307C198.212 111.32 199.749 112.78 200.855 114.55C201.961 116.32 202.6 118.342 202.711 120.426C202.822 122.511 202.402 124.589 201.491 126.466L175.308 180.351L175.108 180.676L175.058 181.069C174.628 184.158 173.041 186.968 170.618 188.931L120.331 229.62C118.146 231.401 115.412 232.368 112.593 232.357C110.045 232.36 107.559 231.571 105.477 230.101C103.395 228.631 101.82 226.552 100.97 224.15C100.119 221.747 100.035 219.14 100.728 216.688C101.421 214.235 102.857 212.058 104.84 210.456L151.246 172.956L151.68 172.605L151.922 172.096L179.331 115.7C180.334 113.611 181.908 111.85 183.872 110.621C185.835 109.392 188.107 108.745 190.424 108.755ZM190.424 106.251C187.638 106.247 184.908 107.027 182.546 108.503C180.184 109.98 178.286 112.092 177.069 114.598L149.66 170.995L103.27 208.512C101.755 209.735 100.496 211.246 99.5641 212.956C98.6324 214.667 98.0468 216.544 97.8406 218.481C97.6345 220.418 97.8118 222.376 98.3625 224.244C98.9133 226.113 99.8266 227.854 101.05 229.369C102.274 230.885 103.784 232.144 105.495 233.076C107.205 234.007 109.083 234.593 111.019 234.799C114.931 235.216 118.848 234.061 121.908 231.59L172.212 190.926C175.135 188.57 177.049 185.188 177.562 181.469L203.745 127.585C205.461 124.047 205.703 119.973 204.416 116.257C203.13 112.542 200.42 109.489 196.884 107.771C194.871 106.789 192.662 106.279 190.424 106.277V106.251Z" fill="#0047B3"/>
<path d="M301.324 237.875C298.462 237.879 295.673 236.977 293.356 235.298C291.039 233.618 289.314 231.248 288.428 228.527L269.757 171.562L226.582 125.707C224.113 123.087 222.787 119.594 222.894 115.997C223.001 112.399 224.533 108.991 227.153 106.523C229.773 104.055 233.266 102.728 236.864 102.836C240.462 102.943 243.869 104.475 246.337 107.095L287.544 150.855L287.719 150.955C290.733 152.603 293.007 155.337 294.079 158.6L314.219 220.072C314.886 222.11 315.061 224.277 314.729 226.396C314.397 228.514 313.568 230.524 312.31 232.261C311.052 233.998 309.401 235.412 307.491 236.387C305.582 237.363 303.468 237.873 301.324 237.875Z" fill="white"/>
<path d="M236.452 104.082C238.134 104.075 239.798 104.416 241.342 105.082C242.886 105.748 244.276 106.726 245.425 107.954L286.497 151.573L286.764 151.856L287.115 152.048C289.85 153.545 291.913 156.029 292.882 158.993L313.03 220.464C314.048 223.57 313.789 226.952 312.313 229.867C310.836 232.783 308.261 234.992 305.156 236.009C302.05 237.026 298.667 236.768 295.752 235.291C292.837 233.814 290.628 231.24 289.61 228.134L271.031 171.437L270.856 170.911L270.48 170.502L227.488 124.847C225.839 123.097 224.739 120.902 224.323 118.533C223.906 116.165 224.192 113.726 225.145 111.518C226.098 109.311 227.677 107.43 229.686 106.108C231.695 104.787 234.047 104.082 236.452 104.082ZM236.452 101.578C232.675 101.573 229.04 103.015 226.295 105.609C223.433 108.305 221.758 112.027 221.639 115.957C221.52 119.886 222.967 123.703 225.66 126.567L268.653 172.222L287.232 228.919C288.21 231.883 290.098 234.462 292.628 236.29C295.158 238.119 298.199 239.102 301.32 239.101C302.889 239.103 304.447 238.852 305.936 238.359C307.786 237.753 309.499 236.788 310.977 235.52C312.454 234.252 313.668 232.706 314.547 230.969C315.427 229.232 315.956 227.339 316.104 225.397C316.252 223.456 316.016 221.504 315.409 219.654L295.294 158.208C294.127 154.643 291.643 151.658 288.35 149.862L247.277 106.252C245.895 104.775 244.223 103.599 242.367 102.796C240.51 101.994 238.508 101.582 236.486 101.586L236.452 101.578Z" fill="#0047B3"/>
<path d="M189.816 108.063C190.108 107.011 188.982 106.093 187.972 105.734C182.814 103.89 177.313 107.629 173.85 111.877C162.999 125.165 161.756 144.545 150.188 157.173C147.684 159.961 144.57 162.457 143.202 165.979C142.367 168.082 142.175 170.553 140.581 172.155C137.852 174.909 132.101 174.05 130.799 177.73C130.609 178.341 130.556 178.986 130.644 179.619C130.732 180.253 130.959 180.859 131.308 181.395C132.518 183.364 134.555 184.391 136.433 185.568C143.894 190.342 148.844 198.087 151.615 206.576C151.89 207.434 152.383 208.207 153.044 208.819C153.705 209.431 154.514 209.863 155.39 210.072C156.267 210.281 157.183 210.26 158.05 210.012C158.916 209.763 159.704 209.296 160.337 208.654C161.781 207.177 163.291 205.741 164.66 204.264C167.301 201.266 169.716 198.077 171.888 194.724C175.986 188.723 180.293 181.72 178.499 174.692" fill="white"/>
<path d="M189.816 108.063C190.108 107.011 188.982 106.093 187.972 105.734C182.814 103.89 177.313 107.629 173.85 111.877C162.999 125.165 161.756 144.545 150.188 157.173C147.684 159.961 144.57 162.457 143.202 165.979C142.367 168.082 142.175 170.553 140.581 172.155C137.852 174.909 132.101 174.05 130.799 177.731C130.609 178.341 130.556 178.986 130.644 179.619C130.732 180.253 130.959 180.859 131.308 181.395C132.518 183.364 134.555 184.391 136.433 185.568C143.894 190.342 148.844 198.087 151.615 206.576C151.89 207.434 152.383 208.207 153.044 208.819C153.705 209.431 154.514 209.863 155.39 210.072C156.267 210.281 157.183 210.26 158.05 210.012C158.916 209.763 159.704 209.296 160.337 208.654C161.781 207.177 163.291 205.741 164.66 204.264C167.301 201.265 169.716 198.077 171.888 194.724C175.986 188.723 180.293 181.72 178.499 174.692" stroke="#0047B3" stroke-width="3" stroke-miterlimit="10"/>
<path d="M247.297 233.384C246.302 233.38 245.31 233.305 244.326 233.159C242.548 232.908 240.745 232.483 238.992 232.065C237.507 231.715 235.971 231.356 234.427 231.089C232.821 230.856 231.2 230.756 229.578 230.788H226.84C224.637 230.788 222.141 230.73 220.43 230.062C218.11 229.161 217.008 226.557 215.739 223.544C215.125 221.998 214.408 220.495 213.594 219.045C210.954 214.816 208.046 210.76 204.889 206.901L182.42 178.256C177.805 172.33 172.605 165.653 170.485 158.05C167.981 148.868 170.101 137.793 176.277 127.669C181.619 118.913 189.156 111.669 196.584 104.716C198.88 109.448 201.943 113.997 206.959 114.84C207.491 114.927 208.03 114.972 208.57 114.974C211.207 114.841 213.777 114.101 216.081 112.812C222.512 109.584 228.21 105.07 232.824 99.5496C238.174 108.731 239.109 119.906 240.011 130.74C240.286 134.079 240.57 137.492 240.979 140.814C242.59 153.926 246.387 166.738 250.06 179.133L256.269 200.09C259.249 210.156 260.751 223.168 256.027 229.495C254.066 232.116 251.228 233.384 247.33 233.384H247.297Z" fill="white"/>
<path d="M232.555 101.728C237.021 110.375 237.889 120.766 238.732 130.848C239.007 134.187 239.291 137.617 239.708 140.964C241.327 154.185 245.142 167.047 248.822 179.483L255.032 200.441C257.795 209.772 259.439 222.784 255.032 228.743C253.321 231.03 250.809 232.132 247.337 232.132C246.404 232.129 245.472 232.06 244.549 231.923C242.83 231.673 241.127 231.272 239.324 230.847C237.822 230.496 236.261 230.129 234.684 229.853C233.006 229.608 231.312 229.502 229.617 229.536H226.855C224.609 229.536 222.339 229.461 220.904 228.902C219.076 228.192 218.066 225.814 216.906 223.059C216.272 221.461 215.53 219.908 214.686 218.41C212.021 214.133 209.083 210.031 205.888 206.133L205.663 205.841L202.325 201.559L183.437 177.463C178.888 171.662 173.738 165.094 171.752 157.699C169.34 148.852 171.401 138.135 177.402 128.311C182.368 120.173 189.304 113.287 196.265 106.769C198.235 110.533 201.49 115.157 206.807 116.058C207.408 116.159 208.016 116.209 208.626 116.209C211.446 116.072 214.197 115.286 216.664 113.913C222.7 110.885 228.112 106.745 232.614 101.711M232.981 97.3708C228.305 103.38 222.345 108.267 215.537 111.677C213.419 112.874 211.055 113.568 208.626 113.705C208.156 113.703 207.687 113.664 207.224 113.588C202.082 112.753 199.186 107.353 197.05 102.604C189.054 110.116 180.966 117.628 175.265 127.001C169.565 136.374 166.46 147.808 169.34 158.358C171.451 166.12 176.526 172.681 181.492 179.007L203.735 207.385C206.943 211.291 209.896 215.4 212.574 219.687C215.145 224.028 215.912 229.628 220.036 231.231C221.863 231.948 224.351 232.065 226.896 232.065H229.634C231.186 232.03 232.738 232.125 234.275 232.349C237.613 232.925 240.86 233.943 244.207 234.427C245.249 234.579 246.3 234.657 247.353 234.661C264.13 234.661 261.108 211.959 257.494 199.756L251.285 178.798C247.57 166.279 243.84 153.659 242.245 140.689C240.426 125.891 241.135 109.89 232.981 97.4126V97.3708Z" fill="#0047B3"/>
<path d="M181.173 169.827C182.843 184.808 173.353 198.421 168.337 212.627C166.673 217.446 165.406 222.392 164.547 227.417C164.239 229.068 164.403 230.773 165.019 232.335C165.635 233.898 166.679 235.255 168.031 236.252C169.383 237.248 170.988 237.844 172.663 237.97C174.338 238.096 176.015 237.748 177.501 236.965C193.191 228.557 210.877 224.586 228.656 225.48" fill="white"/>
<path d="M181.173 169.827C182.843 184.808 173.353 198.421 168.337 212.627C166.673 217.446 165.406 222.392 164.547 227.417C164.239 229.068 164.403 230.773 165.019 232.335C165.635 233.898 166.679 235.255 168.031 236.252C169.383 237.248 170.988 237.844 172.663 237.97C174.338 238.096 176.015 237.748 177.501 236.965C193.191 228.557 210.877 224.586 228.656 225.48" stroke="#0047B3" stroke-width="3" stroke-miterlimit="10"/>
<path d="M229.8 102.813C239.749 99.5994 250.992 101.878 259.789 107.52C268.586 113.162 275.121 121.868 279.537 131.349C280.513 133.452 281.44 135.656 283.092 137.283C284.579 138.554 286.223 139.628 287.983 140.48C294.698 144.311 300.122 150.052 303.566 156.973C306.003 161.905 307.789 167.823 312.663 170.327C314.182 171.162 315.885 171.504 317.463 172.155C321.436 173.824 324.298 176.996 326.56 180.727C327.118 181.659 327.449 182.71 327.528 183.794C327.607 184.878 327.432 185.965 327.016 186.969C326.6 187.973 325.955 188.866 325.132 189.576C324.31 190.286 323.332 190.794 322.278 191.059C316.955 192.465 311.865 194.641 307.172 197.519C299.952 201.851 293.533 207.368 287.14 212.86L287.023 212.96C286.077 213.782 284.926 214.335 283.693 214.559C282.459 214.783 281.188 214.671 280.012 214.235C278.837 213.799 277.801 213.054 277.012 212.08C276.223 211.105 275.711 209.936 275.53 208.695C275.188 206.35 274.754 204.021 274.195 201.726C270.623 187.212 262.009 174.45 252.494 162.949C249.354 158.943 245.773 155.303 241.819 152.098C239.24 150.129 236.319 148.376 234.716 145.555C231.87 140.547 234.224 134.128 233.047 128.453C232.121 123.912 229.057 118.821 231.887 115.157" fill="white"/>
<path d="M229.8 102.813C239.749 99.5994 250.992 101.878 259.789 107.52C268.586 113.162 275.121 121.868 279.537 131.349C280.513 133.452 281.44 135.656 283.092 137.283C284.579 138.554 286.223 139.628 287.983 140.48C294.698 144.311 300.122 150.052 303.566 156.973C306.003 161.905 307.789 167.823 312.663 170.327C314.182 171.162 315.885 171.504 317.463 172.155C321.436 173.824 324.298 176.996 326.56 180.727C327.118 181.659 327.449 182.71 327.528 183.794C327.607 184.878 327.432 185.965 327.016 186.969C326.6 187.973 325.955 188.866 325.132 189.576C324.31 190.286 323.332 190.794 322.278 191.059C316.955 192.465 311.865 194.641 307.172 197.519C299.952 201.851 293.533 207.368 287.14 212.86L287.023 212.96C286.077 213.782 284.926 214.335 283.693 214.559C282.459 214.783 281.188 214.671 280.012 214.235C278.837 213.799 277.801 213.054 277.012 212.08C276.223 211.105 275.711 209.936 275.53 208.695C275.188 206.35 274.754 204.021 274.195 201.726C270.623 187.212 262.009 174.45 252.494 162.949C249.354 158.943 245.773 155.303 241.819 152.098C239.24 150.129 236.319 148.376 234.716 145.555C231.87 140.547 234.224 134.128 233.047 128.453C232.121 123.912 229.057 118.821 231.887 115.157" stroke="#0047B3" stroke-width="3" stroke-miterlimit="10"/>
<path d="M170.1 55.0629C170.467 58.6602 167.345 61.7401 164.032 63.1923C160.718 64.6446 157.004 65.0953 153.791 66.7646C151.812 67.8056 150.087 69.2708 148.739 71.0555C147.392 72.8402 146.455 74.9005 145.995 77.0891C145.503 79.5346 145.478 82.3807 143.592 84.0083C142.629 84.6602 141.606 85.2191 140.537 85.6776C139.495 86.2839 138.612 87.1304 137.963 88.1467C137.314 89.1629 136.918 90.3195 136.806 91.52C136.656 93.2811 137.465 95.3761 139.201 95.6932C140.629 95.952 141.922 94.9087 143.258 94.3411C144.26 93.9286 145.348 93.7707 146.426 93.8814C147.503 93.9921 148.537 94.3679 149.434 94.9755C151.462 96.3777 152.639 98.8983 154.893 99.8915C159.233 101.811 164.758 97.0287 168.714 99.6411C170.1 100.551 171.001 102.22 172.604 102.42C174.482 102.637 175.942 100.668 177.795 100.342C179.289 100.083 180.725 100.91 182.185 101.327C183.646 101.744 185.632 101.469 186.058 100.017" fill="white"/>
<path d="M170.1 55.0629C170.467 58.6602 167.345 61.7401 164.032 63.1923C160.718 64.6446 157.004 65.0953 153.791 66.7646C151.812 67.8056 150.087 69.2708 148.739 71.0555C147.392 72.8402 146.455 74.9005 145.995 77.0891C145.503 79.5346 145.478 82.3807 143.592 84.0083C142.629 84.6602 141.606 85.2191 140.537 85.6776C139.495 86.2839 138.612 87.1304 137.963 88.1467C137.314 89.1629 136.918 90.3195 136.806 91.52C136.656 93.2811 137.465 95.3761 139.201 95.6933C140.629 95.952 141.922 94.9087 143.258 94.3411C144.26 93.9286 145.348 93.7707 146.426 93.8814C147.503 93.992 148.537 94.3679 149.434 94.9755C151.462 96.3777 152.639 98.8983 154.893 99.8915C159.233 101.811 164.758 97.0287 168.714 99.6411C170.1 100.551 171.001 102.22 172.604 102.42C174.482 102.637 175.942 100.668 177.795 100.342C179.289 100.083 180.725 100.91 182.185 101.327C183.646 101.744 185.632 101.469 186.058 100.017" stroke="#0047B3" stroke-width="3" stroke-miterlimit="10"/>
<path d="M178.171 134.68C175.458 136.708 174.231 140.113 173.163 143.335C172.378 145.789 171.627 148.451 172.47 150.888C173.154 151.164 173.864 150.588 174.348 150.054C175.829 148.397 177.05 146.526 177.97 144.503C177.418 145.318 177.083 146.26 176.999 147.24C176.914 148.221 177.082 149.207 177.486 150.104C178.311 151.892 179.513 153.48 181.008 154.761C181.178 154.965 181.421 155.094 181.684 155.12C182.11 155.12 182.31 154.577 182.386 154.152C183.08 150.111 182.326 145.956 180.257 142.417C181.866 143.11 183.668 143.214 185.347 142.712C187.025 142.21 188.474 141.133 189.438 139.671C189.802 139.173 189.958 138.553 189.872 137.943C189.63 136.883 188.328 136.491 187.243 136.441C184.929 136.337 182.636 136.918 180.649 138.11C181.915 136.992 182.979 135.665 183.796 134.187C184.277 133.443 184.516 132.568 184.48 131.683C184.451 131.246 184.266 130.834 183.961 130.521C183.655 130.207 183.247 130.013 182.811 129.972C182.358 130.025 181.927 130.194 181.559 130.465C177.253 133.16 173.931 137.976 174.331 143.026" fill="#0047B3"/>
<path d="M178.171 134.68C175.458 136.708 174.231 140.113 173.163 143.335C172.378 145.789 171.627 148.451 172.47 150.888C173.154 151.164 173.864 150.588 174.348 150.054C175.829 148.397 177.05 146.526 177.97 144.503C177.418 145.318 177.083 146.26 176.999 147.24C176.914 148.221 177.082 149.207 177.486 150.104C178.311 151.892 179.513 153.48 181.008 154.761C181.178 154.965 181.421 155.094 181.684 155.12C182.11 155.12 182.31 154.577 182.386 154.152C183.08 150.111 182.326 145.956 180.257 142.417C181.866 143.11 183.668 143.214 185.347 142.712C187.025 142.21 188.474 141.133 189.438 139.671C189.802 139.173 189.958 138.553 189.872 137.943C189.63 136.883 188.328 136.491 187.243 136.441C184.929 136.337 182.636 136.918 180.649 138.11C181.915 136.992 182.979 135.665 183.796 134.187C184.277 133.443 184.516 132.568 184.48 131.683C184.451 131.246 184.266 130.834 183.961 130.521C183.655 130.207 183.247 130.013 182.811 129.972C182.358 130.025 181.927 130.194 181.559 130.465C177.253 133.16 173.931 137.976 174.331 143.026" stroke="#0047B3" stroke-width="3" stroke-miterlimit="10"/>
<path d="M218.51 157.665C216.699 162.406 214.887 167.765 216.982 172.388C217.383 173.282 218.259 174.241 219.177 173.891C219.486 173.749 219.751 173.527 219.945 173.248C223.284 169.259 223.568 163.55 222.641 158.45C223.066 159.326 223.706 160.08 224.501 160.64C225.297 161.201 226.222 161.55 227.19 161.655C228.16 161.72 229.124 161.452 229.92 160.895C230.717 160.338 231.3 159.525 231.572 158.592C231.743 157.649 231.657 156.677 231.321 155.779C230.245 152.557 227.474 150.17 224.527 148.484C222.214 147.014 219.532 146.227 216.79 146.214C215.709 146.217 214.652 146.539 213.752 147.141C211.724 148.635 211.749 151.965 213.435 153.818C215.121 155.671 217.967 156.163 220.413 155.562C219.945 155.17 219.336 155.821 219.094 156.397C218.014 158.965 217.46 161.723 217.466 164.509" fill="#0047B3"/>
<path d="M218.51 157.665C216.699 162.406 214.887 167.765 216.982 172.388C217.383 173.282 218.259 174.241 219.177 173.891C219.486 173.749 219.751 173.527 219.945 173.248C223.284 169.259 223.568 163.55 222.641 158.45C223.066 159.326 223.706 160.08 224.501 160.64C225.297 161.201 226.222 161.55 227.19 161.655C228.16 161.72 229.124 161.452 229.92 160.895C230.717 160.338 231.3 159.525 231.572 158.592C231.743 157.649 231.657 156.677 231.321 155.779C230.245 152.557 227.474 150.17 224.527 148.484C222.214 147.014 219.532 146.227 216.79 146.214C215.709 146.217 214.652 146.539 213.752 147.141C211.724 148.635 211.749 151.965 213.435 153.818C215.121 155.671 217.967 156.163 220.413 155.562C219.945 155.17 219.336 155.821 219.094 156.397C218.014 158.965 217.46 161.723 217.466 164.509" stroke="#0047B3" stroke-width="3" stroke-miterlimit="10"/>
<path d="M196.35 179.967C194.472 181.83 192.996 184.058 192.014 186.515C191.032 188.971 190.565 191.603 190.642 194.248C190.642 195.391 191.059 196.793 192.177 197.002C193.012 197.169 193.847 196.493 194.389 195.834C196.913 192.907 198.452 189.259 198.788 185.409C198.687 186.385 199.939 186.87 200.916 187.003C202.911 187.262 204.997 187.429 206.867 186.686C208.737 185.943 210.281 184.023 209.947 182.037C209.736 181.048 209.226 180.148 208.486 179.458C206.575 177.607 204.064 176.503 201.408 176.345C198.769 176.193 196.128 176.608 193.663 177.563C192.427 177.928 191.302 178.597 190.391 179.508C189.944 179.971 189.645 180.556 189.532 181.189C189.419 181.822 189.497 182.475 189.757 183.064C190.349 184.149 191.651 184.616 192.862 184.85C194.052 185.077 195.265 185.166 196.476 185.117" fill="#0047B3"/>
<path d="M196.35 179.967C194.472 181.83 192.996 184.058 192.014 186.515C191.032 188.971 190.565 191.603 190.642 194.248C190.642 195.391 191.059 196.793 192.177 197.002C193.012 197.169 193.847 196.493 194.389 195.834C196.913 192.907 198.452 189.259 198.788 185.409C198.687 186.385 199.939 186.87 200.916 187.003C202.911 187.262 204.997 187.429 206.867 186.686C208.737 185.943 210.281 184.023 209.947 182.037C209.736 181.048 209.226 180.148 208.486 179.458C206.575 177.607 204.064 176.503 201.408 176.345C198.769 176.193 196.128 176.608 193.663 177.563C192.427 177.928 191.302 178.597 190.391 179.508C189.944 179.971 189.645 180.556 189.532 181.189C189.419 181.822 189.497 182.475 189.757 183.064C190.349 184.149 191.651 184.616 192.862 184.85C194.052 185.077 195.265 185.166 196.476 185.117" stroke="#0047B3" stroke-width="3" stroke-miterlimit="10"/>
<path d="M214.835 186.411C210.762 188.606 202.441 198.438 205.846 203.496C208.684 207.669 214.493 202.327 216.095 199.323C217.815 196.084 219.576 192.645 219.434 188.998C219.471 188.466 219.382 187.933 219.174 187.441C218.967 186.95 218.647 186.514 218.24 186.169C217.264 185.484 215.887 185.843 214.835 186.411Z" fill="#0047B3" stroke="#0047B3" stroke-width="3" stroke-miterlimit="10"/>
<path d="M256.018 51.8833C259.515 49.3793 265.199 50.8566 266.968 54.8045C267.995 57.0914 267.803 59.8123 269.18 61.9574C270.849 64.5114 274.188 65.2959 277.218 65.5797C279.029 65.7383 281.049 65.8885 282.292 67.249C283.745 68.8014 283.486 71.2386 284.07 73.2834C285.389 77.8489 290.881 79.9606 295.621 79.5933C295.873 79.5387 296.133 79.5341 296.387 79.5799C296.64 79.6258 296.882 79.7211 297.099 79.8604C297.575 80.2861 297.491 81.0373 297.366 81.6716L296.464 86.3038C296.253 87.8434 295.776 89.3345 295.054 90.7107C294.684 91.3949 294.144 91.9724 293.486 92.3875C292.828 92.8027 292.075 93.0415 291.298 93.0811C288.686 93.0311 287.125 90.1265 284.621 89.1667C281.207 87.8062 277.643 90.6106 275.123 93.2814C272.602 95.9523 269.38 98.9904 265.808 98.139C263.605 97.6132 261.877 95.6351 259.623 95.4765C256.877 95.2345 254.666 97.6299 252.062 98.5564C250.367 99.1014 248.536 99.0349 246.886 98.3684C245.235 97.7019 243.871 96.4777 243.031 94.909" fill="white"/>
<path d="M256.018 51.8833C259.515 49.3793 265.199 50.8566 266.968 54.8045C267.995 57.0914 267.803 59.8123 269.18 61.9574C270.849 64.5114 274.188 65.2959 277.218 65.5797C279.029 65.7383 281.049 65.8885 282.292 67.249C283.745 68.8014 283.486 71.2386 284.07 73.2834C285.389 77.8489 290.881 79.9606 295.621 79.5933C295.873 79.5387 296.133 79.5341 296.387 79.5799C296.64 79.6258 296.882 79.7211 297.099 79.8604C297.575 80.2861 297.491 81.0373 297.366 81.6716L296.464 86.3038C296.253 87.8434 295.776 89.3345 295.054 90.7107C294.684 91.3949 294.144 91.9724 293.486 92.3875C292.828 92.8027 292.075 93.0415 291.298 93.0811C288.686 93.031 287.125 90.1265 284.621 89.1667C281.207 87.8062 277.643 90.6106 275.123 93.2814C272.602 95.9523 269.38 98.9904 265.808 98.139C263.605 97.6132 261.877 95.6351 259.623 95.4765C256.877 95.2345 254.666 97.6299 252.062 98.5564C250.367 99.1014 248.536 99.0349 246.886 98.3684C245.235 97.7019 243.871 96.4777 243.031 94.909" stroke="#0047B3" stroke-width="3" stroke-miterlimit="10"/>
<path d="M232.203 189.131L232.921 188.581C229.559 191.64 227.193 195.638 226.127 200.057C225.904 200.773 225.867 201.534 226.019 202.269C226.106 202.633 226.308 202.959 226.595 203.2C226.882 203.44 227.239 203.582 227.613 203.604C228.129 203.531 228.607 203.29 228.973 202.92C230.781 201.257 232.227 199.24 233.222 196.994C232.58 197.685 232.1 198.509 231.815 199.408C231.529 200.306 231.445 201.257 231.57 202.191C231.694 203.126 232.024 204.021 232.534 204.814C233.045 205.606 233.724 206.276 234.524 206.776C235.559 207.427 236.977 207.736 237.937 206.984C238.43 206.54 238.778 205.959 238.939 205.315C239.485 203.55 239.599 201.68 239.273 199.862C238.946 198.043 238.187 196.33 237.061 194.865C237.38 195.292 237.807 195.625 238.3 195.829C238.792 196.034 239.33 196.101 239.857 196.026C240.919 195.862 241.901 195.365 242.661 194.607C243.821 193.538 244.689 191.877 244.172 190.383C243.655 188.889 241.668 188.055 239.999 188.288C238.357 188.659 236.823 189.404 235.517 190.467C236.805 189.775 237.85 188.705 238.509 187.4C239.169 186.095 239.412 184.619 239.206 183.172C237.637 182.187 235.617 183.431 234.348 184.783C232.22 187.057 230.599 189.757 229.591 192.704" fill="#0047B3"/>
<path d="M232.203 189.131L232.921 188.581C229.559 191.64 227.193 195.638 226.127 200.057C225.904 200.773 225.867 201.534 226.019 202.269C226.106 202.633 226.308 202.959 226.595 203.2C226.882 203.44 227.239 203.582 227.613 203.604C228.129 203.531 228.607 203.29 228.973 202.92C230.781 201.257 232.227 199.24 233.222 196.994C232.58 197.685 232.1 198.509 231.815 199.408C231.529 200.306 231.445 201.257 231.57 202.191C231.694 203.126 232.024 204.021 232.534 204.814C233.045 205.606 233.724 206.276 234.524 206.776C235.559 207.427 236.977 207.736 237.937 206.984C238.43 206.54 238.778 205.959 238.939 205.315C239.485 203.55 239.599 201.68 239.273 199.862C238.946 198.043 238.187 196.33 237.061 194.865C237.38 195.292 237.807 195.625 238.3 195.829C238.792 196.034 239.33 196.101 239.857 196.026C240.919 195.862 241.901 195.365 242.661 194.607C243.821 193.538 244.689 191.877 244.172 190.383C243.655 188.889 241.668 188.055 239.999 188.288C238.357 188.659 236.823 189.404 235.517 190.467C236.805 189.775 237.85 188.705 238.509 187.4C239.169 186.095 239.412 184.619 239.206 183.172C237.637 182.187 235.617 183.431 234.348 184.783C232.22 187.057 230.599 189.757 229.591 192.704" stroke="#0047B3" stroke-width="3" stroke-miterlimit="10"/>
<path d="M206.891 146.64C206.601 145.351 205.984 144.159 205.097 143.179C204.211 142.199 203.087 141.465 201.833 141.048C200.575 140.651 199.252 140.507 197.939 140.623C196.625 140.739 195.348 141.113 194.179 141.724C191.835 142.972 189.964 144.953 188.852 147.364C187.74 149.776 187.447 152.485 188.02 155.078C188.344 156.505 188.979 157.843 189.879 158.997C190.779 160.152 191.923 161.093 193.228 161.755C194.545 162.39 196.02 162.626 197.47 162.435C198.92 162.244 200.282 161.633 201.391 160.679C202.183 159.944 202.793 158.734 202.225 157.816C201.94 157.429 201.544 157.138 201.09 156.981C199.675 156.51 198.219 156.169 196.742 155.963C195.249 155.755 193.898 154.97 192.977 153.776C192.509 152.945 192.238 152.017 192.184 151.064C192.001 149.461 191.992 147.725 193.019 146.415C194.046 145.104 195.94 144.687 197.635 144.795C198.906 144.824 200.134 145.266 201.132 146.056C201.62 146.458 201.976 146.998 202.15 147.606C202.324 148.215 202.31 148.861 202.108 149.461C201.831 150.035 201.371 150.501 200.799 150.784C200.228 151.066 199.578 151.15 198.953 151.022C198.335 150.871 197.764 150.568 197.292 150.141C196.82 149.714 196.461 149.177 196.249 148.576C196.092 148.201 196.011 147.798 196.011 147.391C196.011 146.984 196.092 146.581 196.249 146.206C196.423 145.838 196.714 145.539 197.077 145.355C197.439 145.17 197.853 145.112 198.252 145.188C193.353 143.877 188.812 151.865 194.78 153.367C199.788 154.602 208.285 153.968 206.891 146.64Z" fill="#0047B3" stroke="#0047B3" stroke-width="3" stroke-miterlimit="10"/>
<path d="M247.782 75.4532C251.179 54.523 236.966 34.8015 216.036 31.4041C195.106 28.0066 175.385 42.2197 171.987 63.1499C168.59 84.0801 182.803 103.802 203.733 107.199C224.663 110.596 244.385 96.3833 247.782 75.4532Z" fill="white"/>
<path d="M209.879 32.1606C217.225 32.1606 224.406 34.3389 230.514 38.4201C236.622 42.5012 241.382 48.3019 244.194 55.0887C247.005 61.8754 247.74 69.3433 246.307 76.5481C244.874 83.7528 241.337 90.3708 236.142 95.5651C230.948 100.759 224.33 104.297 217.125 105.73C209.92 107.163 202.453 106.428 195.666 103.616C188.879 100.805 183.078 96.0447 178.997 89.9368C174.916 83.8289 172.738 76.648 172.738 69.3021C172.749 59.455 176.665 50.0143 183.628 43.0513C190.591 36.0883 200.032 32.1716 209.879 32.1606ZM209.879 29.6567C202.038 29.6567 194.373 31.9818 187.853 36.3381C181.334 40.6944 176.252 46.8862 173.252 54.1305C170.251 61.3747 169.466 69.3461 170.996 77.0366C172.525 84.727 176.301 91.7912 181.846 97.3357C187.39 102.88 194.454 106.656 202.145 108.186C209.835 109.716 217.807 108.93 225.051 105.93C232.295 102.929 238.487 97.8476 242.843 91.3279C247.2 84.8083 249.525 77.1432 249.525 69.3021C249.525 58.7875 245.348 48.7035 237.913 41.2686C230.478 33.8336 220.394 29.6567 209.879 29.6567Z" fill="#0047B3"/>
<path d="M184.003 79.3179C185.386 79.3179 186.507 78.1969 186.507 76.814C186.507 75.4311 185.386 74.3101 184.003 74.3101C182.621 74.3101 181.5 75.4311 181.5 76.814C181.5 78.1969 182.621 79.3179 184.003 79.3179Z" fill="#0047B3"/>
<path d="M184.005 75.562C184.253 75.562 184.495 75.6355 184.701 75.773C184.907 75.9106 185.067 76.1061 185.162 76.3349C185.257 76.5637 185.282 76.8154 185.233 77.0582C185.185 77.3011 185.066 77.5242 184.891 77.6993C184.716 77.8744 184.493 77.9936 184.25 78.0419C184.007 78.0902 183.755 78.0654 183.526 77.9707C183.298 77.8759 183.102 77.7154 182.964 77.5095C182.827 77.3037 182.753 77.0616 182.753 76.814C182.753 76.4819 182.885 76.1635 183.12 75.9287C183.355 75.6939 183.673 75.562 184.005 75.562ZM184.005 73.0581C183.263 73.0581 182.536 73.2784 181.919 73.6911C181.301 74.1038 180.82 74.6904 180.535 75.3767C180.251 76.063 180.177 76.8182 180.322 77.5467C180.467 78.2753 180.824 78.9445 181.35 79.4698C181.875 79.9951 182.544 80.3528 183.273 80.4977C184.001 80.6426 184.756 80.5683 185.443 80.284C186.129 79.9997 186.716 79.5183 187.128 78.9006C187.541 78.283 187.761 77.5568 187.761 76.814C187.759 75.8185 187.363 74.8645 186.659 74.1606C185.955 73.4567 185.001 73.0603 184.005 73.0581Z" fill="#0047B3"/>
<path d="M210.346 91.0612C211.292 90.9851 212.239 91.2101 213.05 91.7038C213.094 91.7305 213.136 91.7612 213.175 91.7957C213.068 92.0072 212.933 92.2037 212.774 92.3799C211.513 93.7375 209.782 94.5641 207.934 94.6919C207.666 94.6919 207.399 94.6919 207.099 94.6919C205.338 94.6621 203.607 94.2371 202.033 93.4482C201.116 92.9977 200.309 92.3508 199.671 91.5536C200.476 91.2851 201.327 91.1774 202.174 91.2364C202.767 91.2364 203.393 91.2364 203.994 91.2865C204.595 91.3366 205.179 91.3366 205.738 91.3366C206.298 91.3366 206.573 91.3366 206.924 91.2865L207.625 91.2198C208.543 91.1279 209.486 91.0278 210.337 91.0278M210.337 88.5239C209.127 88.5239 207.875 88.6824 206.69 88.7993C206.398 88.7993 206.081 88.7993 205.738 88.7993C204.687 88.7993 203.418 88.6991 202.174 88.6991C200.505 88.6991 198.836 88.8828 197.851 89.7508C195.406 91.8541 199.145 94.7586 200.973 95.6684C202.885 96.6214 204.987 97.132 207.124 97.1624C207.466 97.1624 207.808 97.1624 208.151 97.1624C210.64 96.9696 212.964 95.8391 214.652 93.9991C215.045 93.6269 215.34 93.1627 215.509 92.6483C215.678 92.134 215.716 91.5857 215.621 91.0528C215.412 90.4685 215.016 89.9697 214.494 89.6339C213.254 88.8343 211.793 88.4486 210.321 88.5322L210.337 88.5239Z" fill="#0047B3"/>
<path d="M203.736 90.3851C203.827 90.2765 203.955 90.2052 204.095 90.1848C204.312 91.9626 204.437 93.7571 204.487 95.5432" stroke="#0047B3" stroke-width="3" stroke-miterlimit="10"/>
<path d="M208.746 90.6606C208.746 90.6106 208.821 90.5605 208.879 90.6022C208.938 90.6439 208.929 90.7107 208.879 90.7691L208.529 95.368" stroke="#0047B3" stroke-width="3" stroke-miterlimit="10"/>
<path d="M233.254 79.3179C232.659 79.3199 232.083 79.11 231.629 78.7258C231.174 78.3416 230.872 77.8083 230.775 77.2213C230.678 76.6343 230.794 76.032 231.101 75.5223C231.407 75.0127 231.886 74.629 232.45 74.4399C233.014 74.2508 233.627 74.2687 234.179 74.4905C234.731 74.7122 235.186 75.1233 235.463 75.65C235.739 76.1768 235.819 76.7847 235.688 77.3651C235.557 77.9454 235.224 78.4602 234.748 78.8171C234.317 79.1405 233.793 79.3161 233.254 79.3179Z" fill="#0047B3"/>
<path d="M233.251 75.562C233.514 75.562 233.77 75.6447 233.983 75.7984C234.197 75.952 234.356 76.1688 234.439 76.4181C234.522 76.6674 234.525 76.9365 234.446 77.1873C234.368 77.4381 234.213 77.6579 234.002 77.8156C233.789 77.978 233.528 78.066 233.26 78.066C233.08 78.0679 232.901 78.0308 232.737 77.9572C232.573 77.8835 232.427 77.7751 232.308 77.6394C232.19 77.5037 232.103 77.3439 232.052 77.1712C232.002 76.9984 231.989 76.8167 232.016 76.6387C232.06 76.3415 232.208 76.0696 232.435 75.8722C232.661 75.6748 232.951 75.5648 233.251 75.562ZM233.251 73.0581C232.446 73.0713 231.666 73.3467 231.031 73.8427C230.401 74.3156 229.935 74.9751 229.7 75.7275C229.465 76.4799 229.472 77.2873 229.722 78.0351C229.971 78.7829 230.449 79.4334 231.089 79.8943C231.728 80.3552 232.496 80.6033 233.285 80.6033C234.095 80.6051 234.884 80.3412 235.53 79.8521C236.161 79.3791 236.626 78.7197 236.861 77.9673C237.096 77.2148 237.089 76.4075 236.839 75.6597C236.59 74.9118 236.112 74.2614 235.472 73.8004C234.833 73.3395 234.065 73.0915 233.276 73.0915L233.251 73.0581Z" fill="#0047B3"/>
<path d="M205.705 72.6406C205.433 76.5356 205.154 80.4306 204.871 84.3256L205.705 72.6406Z" fill="#0047B3"/>
<path d="M205.705 72.6406C205.433 76.5356 205.154 80.4306 204.871 84.3256" stroke="#0047B3" stroke-width="3" stroke-miterlimit="10"/>
<path d="M103.225 202.864L83.6334 210.045C80.2706 211.277 78.5437 215.003 79.7763 218.366C81.0089 221.729 84.7343 223.455 88.0972 222.223L107.689 215.042C111.051 213.809 112.778 210.084 111.546 206.721C110.313 203.358 106.588 201.631 103.225 202.864Z" fill="white" stroke="#0047B3" stroke-width="3" stroke-miterlimit="10"/>
<path d="M123.016 213.054L115.883 206.421C108.804 199.838 97.731 200.239 91.15 207.316C84.5691 214.393 84.9725 225.467 92.0512 232.049L99.1841 238.682C106.263 245.264 117.336 244.864 123.917 237.787C130.498 230.71 130.095 219.636 123.016 213.054Z" fill="white" stroke="#0047B3" stroke-width="3" stroke-miterlimit="10"/>
<path d="M93.4712 231.389L93.1206 231.715C93.747 230.813 94.4598 229.974 95.2489 229.211C96.5426 227.976 98.07 226.899 98.888 225.313" fill="white"/>
<path d="M92.5872 230.505L92.2367 230.83L94.2064 232.349L94.532 231.89C94.749 231.598 94.4485 231.99 94.582 231.823L94.7573 231.606C94.991 231.306 95.2414 231.022 95.5001 230.772C96.0009 230.238 96.5434 229.745 97.0943 229.253C98.2572 228.341 99.2394 227.22 99.9905 225.948C100.144 225.662 100.18 225.328 100.092 225.016C100.003 224.704 99.7974 224.438 99.5174 224.275C99.2373 224.112 98.9048 224.063 98.5899 224.14C98.2749 224.217 98.0021 224.413 97.8288 224.687C97.6675 224.978 97.4862 225.257 97.2863 225.522C97.4532 225.28 97.2863 225.522 97.2362 225.589L97.1026 225.739L96.7521 226.123C96.2597 226.632 95.7255 227.091 95.1997 227.567C94.0195 228.596 92.9685 229.765 92.0698 231.047C91.9156 231.309 91.8627 231.619 91.9211 231.917C91.9796 232.215 92.1453 232.482 92.3869 232.666C92.6293 232.857 92.933 232.952 93.2406 232.933C93.5481 232.915 93.8383 232.784 94.0562 232.566L94.4068 232.241C94.6279 232.003 94.7483 231.69 94.7426 231.365C94.7368 231.041 94.6055 230.731 94.3761 230.502C94.1467 230.273 93.8372 230.141 93.5129 230.136C93.1885 230.13 92.8746 230.25 92.6373 230.471L92.5872 230.505Z" fill="#0047B3"/>
<path d="M100.675 238.4C100.767 238.601 101.051 238.4 101.168 238.25C101.817 237.361 102.54 236.529 103.329 235.763L107.127 231.857" fill="white"/>
<path d="M99.5979 239.035C99.8044 239.364 100.132 239.598 100.51 239.687C100.888 239.776 101.286 239.713 101.618 239.51C101.872 239.351 102.089 239.137 102.252 238.884L102.427 238.642C102.427 238.576 102.586 238.425 102.477 238.559C103.007 237.902 103.569 237.272 104.163 236.673L108.003 232.725C108.235 232.489 108.365 232.171 108.365 231.84C108.365 231.509 108.235 231.191 108.003 230.955C107.765 230.727 107.448 230.599 107.118 230.599C106.788 230.599 106.471 230.727 106.233 230.955L102.895 234.344C102.386 234.87 101.868 235.396 101.376 235.93C101.134 236.197 100.9 236.464 100.675 236.764L100.232 237.34C100.179 237.402 100.131 237.47 100.09 237.541C99.9818 237.365 100.975 237.249 100.708 237.249L101.342 237.424H101.284L101.735 237.866V237.816C101.561 237.536 101.287 237.333 100.969 237.249C100.651 237.166 100.312 237.207 100.024 237.365C99.7387 237.534 99.5318 237.808 99.4475 238.129C99.3631 238.449 99.4082 238.789 99.5728 239.076L99.5979 239.035Z" fill="#0047B3"/>
<path d="M285.697 236.316L284.576 257.152C284.384 260.729 287.127 263.784 290.704 263.976C294.28 264.169 297.336 261.425 297.528 257.849L298.649 237.013C298.842 233.437 296.098 230.381 292.522 230.189C288.945 229.996 285.89 232.74 285.697 236.316Z" fill="white" stroke="#0047B3" stroke-width="3" stroke-miterlimit="10"/>
<path d="M302.832 222.15L293.925 226.091C285.085 230.003 281.09 240.338 285 249.176C288.911 258.013 299.247 262.006 308.087 258.095L316.994 254.153C325.833 250.241 329.829 239.906 325.918 231.069C322.008 222.232 311.671 218.238 302.832 222.15Z" fill="white" stroke="#0047B3" stroke-width="3" stroke-miterlimit="10"/>
<path d="M308.057 256.495L308.224 256.946C307.643 256.014 307.154 255.027 306.764 254C306.138 252.331 305.754 250.503 304.619 249.126" fill="white"/>
<path d="M306.857 256.829L307.015 257.28L309.302 256.312C308.545 255.063 307.945 253.726 307.516 252.331C307.102 250.856 306.42 249.469 305.505 248.241C305.269 248.008 304.951 247.878 304.62 247.878C304.289 247.878 303.971 248.008 303.735 248.241C303.509 248.48 303.382 248.796 303.382 249.126C303.382 249.455 303.509 249.771 303.735 250.01C303.827 250.127 303.844 250.144 303.735 250.06C303.787 250.127 303.835 250.196 303.877 250.269C303.969 250.411 304.061 250.553 304.144 250.695C304.228 250.837 304.303 250.995 304.378 251.145L304.503 251.429C304.77 252.063 304.971 252.714 305.188 253.365C305.665 254.826 306.309 256.226 307.107 257.539C307.264 257.798 307.508 257.993 307.796 258.088C308.084 258.183 308.396 258.172 308.676 258.056C308.956 257.941 309.184 257.726 309.316 257.454C309.449 257.182 309.476 256.87 309.394 256.579L309.236 256.128C309.196 255.965 309.124 255.812 309.023 255.678C308.923 255.544 308.797 255.431 308.653 255.346C308.508 255.261 308.348 255.207 308.182 255.185C308.016 255.163 307.847 255.175 307.686 255.22C307.524 255.264 307.373 255.341 307.242 255.445C307.111 255.549 307.002 255.678 306.921 255.825C306.841 255.972 306.791 256.134 306.774 256.301C306.757 256.467 306.774 256.636 306.823 256.796L306.857 256.829Z" fill="#0047B3"/>
<path d="M317.347 252.639C317.564 252.639 317.514 252.297 317.397 252.122C316.833 251.168 316.35 250.169 315.953 249.134L313.867 244.126" fill="white"/>
<path d="M317.68 253.841C317.986 253.76 318.256 253.581 318.449 253.33C318.643 253.079 318.748 252.772 318.748 252.456C318.718 251.975 318.553 251.512 318.272 251.12C317.876 250.405 317.525 249.667 317.221 248.908L315.076 243.734C314.969 243.427 314.751 243.172 314.465 243.017C314.18 242.863 313.847 242.821 313.532 242.899C313.22 242.996 312.958 243.21 312.802 243.497C312.646 243.784 312.608 244.121 312.697 244.435L314.516 248.842C314.834 249.593 315.134 250.344 315.468 251.079C315.618 251.421 315.777 251.755 315.952 252.08C316.027 252.214 316.102 252.356 316.186 252.489L316.353 252.765C316.271 252.602 316.25 252.415 316.294 252.239L316.62 251.688L316.57 251.738L317.12 251.412H317.045C316.734 251.509 316.473 251.722 316.317 252.008C316.16 252.293 316.122 252.629 316.208 252.943C316.295 253.256 316.501 253.524 316.782 253.689C317.063 253.853 317.397 253.902 317.713 253.825L317.68 253.841Z" fill="#0047B3"/>
<path d="M252.378 45.6234C250.983 41.5749 248.789 37.8486 245.923 34.6666C243.058 31.4847 239.582 28.9122 235.701 27.1027C231.695 25.2498 226.796 23.7641 225.152 19.6994C224.125 17.1454 224.709 14.2325 224.117 11.5533C222.865 5.86107 216.605 2.56424 210.821 2.13857C205.037 1.7129 199.311 3.30707 193.469 3.73273C191.429 3.9461 189.367 3.78774 187.384 3.26534C185.665 2.74786 184.104 1.79637 182.435 1.12865C179.055 -0.20941 175.321 -0.362404 171.843 0.694641C164.49 2.94817 159.849 9.99254 153.798 14.75C152.532 15.655 151.323 16.6361 150.176 17.6879C147.82 20.1427 146.448 23.3772 146.32 26.7772C146.069 31.8434 149.316 37.5774 154.382 37.8612C154.948 37.8398 155.513 37.919 156.052 38.0949C157.178 38.604 157.454 40.048 157.554 41.2749C157.921 45.59 158.505 50.7647 162.395 52.6761C165.633 54.2702 169.439 52.6761 172.903 51.6578C177.243 50.3808 182.485 50.2807 185.673 53.4857C186.624 54.4372 187.342 55.6391 188.411 56.4403C190.973 58.36 194.637 57.4419 197.55 56.1065C198.565 55.5124 199.713 55.1851 200.889 55.155C202.072 55.3607 203.175 55.8893 204.077 56.6824C207.415 59.1863 211.079 61.782 215.253 61.9156C219.651 62.0658 224.025 59.4116 228.273 60.5718C230.059 61.0559 231.612 62.2411 233.423 62.6333C235.182 63.0626 237.038 62.7965 238.606 61.8905C242.554 59.5953 241.694 61.8071 244.557 63.5598C245.501 64.0717 246.6 64.2185 247.645 63.9722C248.69 63.7259 249.608 63.1038 250.224 62.2244C253.396 57.9844 253.972 50.3725 252.378 45.6234Z" fill="#0065FF" stroke="#0047B3" stroke-width="3" stroke-miterlimit="10"/>
<path d="M178.072 58.819C195.878 58.5686 213.683 57.9343 231.489 56.916C239.527 56.457 247.639 55.9144 255.326 53.9697L258.323 63.8519C258.528 64.3231 258.566 64.85 258.431 65.3459C258.042 65.9853 257.419 66.449 256.695 66.6396C255.018 67.2086 253.287 67.6057 251.529 67.8248C223.518 72.1732 194.623 70.8211 166.504 67.1654C166.304 67.1654 164.058 58.4601 165.669 57.8174C166.955 57.3166 169.842 58.4935 171.236 58.6521C173.51 58.842 175.792 58.8977 178.072 58.819Z" fill="#0047B3" stroke="#0047B3" stroke-width="3" stroke-miterlimit="10"/>
<circle cx="323.4" cy="103.4" r="77" transform="rotate(-11.5048 323.4 103.4)" fill="#E6F0FF" stroke="#0065FF"/>
<ellipse cx="323.4" cy="103.4" rx="72.5" ry="73.5" transform="rotate(-11.5048 323.4 103.4)" fill="#0065FF"/>
<path d="M272.965 101.167C271.84 101.396 270.751 101.346 269.699 101.017C268.646 100.688 267.728 100.075 266.945 99.1773C266.174 98.2628 265.635 97.058 265.331 95.5626C265.03 94.081 265.061 92.7602 265.425 91.6003C265.8 90.4239 266.411 89.4636 267.26 88.7194C268.12 87.9587 269.112 87.4639 270.237 87.2349C271.101 87.059 271.912 87.0796 272.671 87.2966C273.427 87.5 274.078 87.7888 274.626 88.1631L273.415 90.4241C273.007 90.1784 272.592 89.9986 272.169 89.8847C271.757 89.7543 271.311 89.738 270.83 89.8357C270.227 89.9586 269.706 90.2432 269.268 90.6895C268.844 91.1329 268.547 91.7078 268.376 92.414C268.219 93.1174 268.233 93.9218 268.417 94.8273C268.697 96.1992 269.209 97.2092 269.956 97.8574C270.702 98.5055 271.569 98.7291 272.557 98.5281C273.105 98.4164 273.567 98.1938 273.942 97.8603C274.331 97.524 274.655 97.1508 274.915 96.7409L276.905 98.3073C276.048 99.8533 274.735 100.806 272.965 101.167ZM279.048 99.6714L276.97 89.4647L286.107 87.605L288.184 97.8117L285.16 98.4274L283.564 90.5872L280.477 91.2154L282.073 99.0557L279.048 99.6714ZM295.298 96.6211C294.433 96.797 293.575 96.7574 292.723 96.5022C291.882 96.2305 291.147 95.7442 290.519 95.0435C289.888 94.329 289.458 93.4093 289.229 92.2844C288.997 91.1457 289.033 90.1311 289.338 89.2405C289.642 88.3499 290.13 87.622 290.801 87.0568C291.482 86.4752 292.255 86.0964 293.12 85.9205C293.984 85.7446 294.837 85.7925 295.678 86.0642C296.516 86.3222 297.249 86.8015 297.878 87.5023C298.506 88.203 298.936 89.1227 299.168 90.2614C299.397 91.3863 299.36 92.401 299.059 93.3053C298.754 94.1959 298.268 94.9307 297.6 95.5095C296.929 96.0747 296.162 96.4452 295.298 96.6211ZM294.799 94.1723C295.416 94.0466 295.83 93.6911 296.039 93.1055C296.246 92.5063 296.26 91.7676 296.081 90.8896C295.9 89.9979 295.598 89.3235 295.176 88.8664C294.755 88.4093 294.235 88.2436 293.618 88.3693C292.987 88.4977 292.567 88.8547 292.357 89.4403C292.162 90.023 292.154 90.7602 292.336 91.6519C292.515 92.5299 292.809 93.2057 293.22 93.6793C293.642 94.1364 294.168 94.3007 294.799 94.1723ZM303.049 98.7294L300.201 84.7363L302.67 84.2337L303.081 85.2001L303.164 85.1834C303.489 84.7457 303.875 84.36 304.321 84.0263C304.779 83.676 305.275 83.4464 305.81 83.3375C307.044 83.0862 308.115 83.3613 309.021 84.1627C309.924 84.9503 310.536 86.133 310.857 87.7106C311.095 88.8767 311.091 89.9132 310.847 90.8201C310.603 91.727 310.197 92.467 309.628 93.04C309.069 93.5965 308.42 93.9502 307.679 94.101C307.24 94.1903 306.797 94.1877 306.349 94.0931C305.898 93.9848 305.46 93.7955 305.033 93.5251L305.467 95.1299L306.074 98.1137L303.049 98.7294ZM306.477 91.774C306.998 91.6679 307.395 91.3371 307.668 90.7815C307.94 90.226 307.971 89.4269 307.759 88.3843C307.384 86.546 306.607 85.7469 305.428 85.987C304.838 86.1071 304.317 86.5344 303.867 87.269L304.717 91.4464C305.042 91.6375 305.351 91.7531 305.645 91.7933C305.939 91.8335 306.216 91.827 306.477 91.774ZM315.734 92.2043L314.138 84.364L311.134 84.9756L310.652 82.6091L319.707 80.7662L320.188 83.1326L317.163 83.7483L318.759 91.5886L315.734 92.2043ZM323.66 90.591L321.583 80.3842L324.505 79.7895L325.083 82.6292C325.186 83.1368 325.276 83.7186 325.353 84.3746C325.426 85.0168 325.5 85.659 325.573 86.3012L325.635 86.2887C325.735 85.9396 325.862 85.5425 326.014 85.0972C326.163 84.6381 326.283 84.2424 326.372 83.9098L328.147 79.0481L330.905 78.4869L332.982 88.6936L330.06 89.2883L329.482 86.4486C329.376 85.9273 329.286 85.3455 329.213 84.7033C329.153 84.0582 329.086 83.4146 329.013 82.7724L328.93 82.7891C328.827 83.1245 328.702 83.5285 328.555 84.0012C328.42 84.4575 328.299 84.8464 328.193 85.168L326.418 90.0297L323.66 90.591ZM335.658 88.1491L333.58 77.9423L336.605 77.3266L337.355 81.0101L340.627 80.3441L339.877 76.6607L342.902 76.045L344.979 86.2517L341.955 86.8674L341.163 82.9781L337.891 83.6441L338.683 87.5334L335.658 88.1491ZM347.635 85.7113L345.557 75.5045L348.582 74.8888L349.244 78.1402L349.985 77.9894C350.808 77.8218 351.571 77.7808 352.274 77.8663C352.991 77.949 353.593 78.205 354.081 78.6344C354.565 79.0501 354.894 79.6832 355.067 80.5338C355.246 81.4118 355.196 82.1505 354.918 82.75C354.638 83.3358 354.183 83.8068 353.556 84.1632C352.942 84.5167 352.224 84.7772 351.4 84.9448L347.635 85.7113ZM350.191 82.7908L350.787 82.6693C351.871 82.4488 352.329 81.9269 352.162 81.1038C352.003 80.3218 351.381 80.0411 350.297 80.2617L349.701 80.3832L350.191 82.7908ZM357.142 83.7762L355.064 73.5695L358.089 72.9538L360.167 83.1605L357.142 83.7762ZM367.466 81.932C366.492 82.1303 365.57 82.0963 364.702 81.8302C363.833 81.5641 363.092 81.0793 362.477 80.3757C361.862 79.6722 361.441 78.7579 361.212 77.633C360.986 76.5218 361.018 75.5223 361.309 74.6344C361.613 73.7438 362.092 73.0105 362.747 72.4344C363.398 71.8446 364.129 71.4674 364.938 71.3026C365.912 71.1044 366.759 71.1605 367.48 71.4711C368.211 71.7651 368.81 72.2504 369.276 72.927C369.753 73.5871 370.087 74.3836 370.277 75.3164C370.33 75.5771 370.369 75.8405 370.395 76.1068C370.418 76.3593 370.428 76.5501 370.426 76.6791L364.314 77.9231C364.602 78.636 365.022 79.1219 365.575 79.3809C366.125 79.6261 366.736 79.6803 367.408 79.5435C368.135 79.3955 368.823 79.0198 369.472 78.4163L370.853 80.0425C370.404 80.5053 369.878 80.9052 369.276 81.2422C368.673 81.5792 368.069 81.8092 367.466 81.932ZM363.887 75.9312L367.571 75.1815C367.456 74.619 367.225 74.1874 366.878 73.8865C366.542 73.5692 366.072 73.4719 365.469 73.5948C365.002 73.6897 364.617 73.9395 364.314 74.3442C364.008 74.7351 363.866 75.2641 363.887 75.9312ZM261.686 129.738L259.609 119.532L263.066 118.828L265.054 122.066C265.275 122.45 265.479 122.823 265.667 123.185C265.866 123.53 266.056 123.87 266.239 124.204L266.321 124.187C266.372 123.805 266.421 123.417 266.469 123.021C266.515 122.612 266.557 122.189 266.597 121.752L267.078 118.011L270.515 117.312L272.592 127.518L269.917 128.063L269.385 125.449C269.31 125.079 269.232 124.624 269.15 124.083C269.08 123.526 269.016 122.967 268.959 122.407C268.902 121.847 268.848 121.373 268.798 120.983L268.715 121C268.67 121.48 268.603 121.994 268.515 122.541C268.44 123.085 268.371 123.591 268.31 124.061L267.782 127.576L266.136 127.911L264.256 124.886C264.029 124.475 263.767 124.029 263.469 123.546C263.171 123.064 262.903 122.626 262.665 122.231L262.583 122.248C262.702 122.624 262.839 123.082 262.991 123.622C263.158 124.16 263.318 124.699 263.471 125.239C263.621 125.766 263.733 126.214 263.809 126.585L264.341 129.198L261.686 129.738ZM279.889 126.29C278.915 126.489 277.994 126.455 277.126 126.189C276.257 125.922 275.515 125.438 274.901 124.734C274.286 124.031 273.864 123.116 273.635 121.991C273.409 120.88 273.441 119.881 273.732 118.993C274.037 118.102 274.516 117.369 275.17 116.793C275.822 116.203 276.552 115.826 277.362 115.661C278.336 115.463 279.183 115.519 279.903 115.829C280.635 116.123 281.233 116.609 281.7 117.285C282.177 117.945 282.511 118.742 282.7 119.675C282.753 119.935 282.793 120.199 282.818 120.465C282.841 120.718 282.852 120.908 282.849 121.037L276.738 122.281C277.025 122.994 277.446 123.48 277.999 123.739C278.549 123.984 279.16 124.039 279.832 123.902C280.559 123.754 281.247 123.378 281.896 122.775L283.277 124.401C282.828 124.864 282.302 125.264 281.699 125.601C281.096 125.938 280.493 126.167 279.889 126.29ZM276.311 120.29L279.994 119.54C279.88 118.977 279.649 118.546 279.302 118.245C278.966 117.928 278.496 117.83 277.892 117.953C277.426 118.048 277.041 118.298 276.738 118.703C276.432 119.093 276.289 119.622 276.311 120.29ZM286.692 128.592L283.844 114.599L286.313 114.096L286.724 115.063L286.807 115.046C287.132 114.608 287.518 114.222 287.964 113.889C288.422 113.538 288.918 113.309 289.453 113.2C290.687 112.949 291.758 113.224 292.664 114.025C293.567 114.813 294.179 115.995 294.5 117.573C294.738 118.739 294.734 119.776 294.49 120.683C294.246 121.589 293.84 122.329 293.271 122.902C292.712 123.459 292.063 123.813 291.322 123.963C290.883 124.053 290.44 124.05 289.992 123.956C289.541 123.847 289.103 123.658 288.676 123.388L289.11 124.992L289.717 127.976L286.692 128.592ZM290.12 121.636C290.641 121.53 291.038 121.199 291.311 120.644C291.584 120.088 291.614 119.289 291.402 118.247C291.027 116.408 290.25 115.609 289.071 115.849C288.481 115.969 287.96 116.397 287.51 117.131L288.36 121.309C288.685 121.5 288.994 121.616 289.288 121.656C289.582 121.696 289.859 121.689 290.12 121.636ZM302.151 121.759C301.287 121.935 300.429 121.895 299.577 121.64C298.736 121.369 298.001 120.882 297.373 120.182C296.741 119.467 296.311 118.547 296.082 117.423C295.851 116.284 295.887 115.269 296.191 114.379C296.496 113.488 296.983 112.76 297.654 112.195C298.336 111.613 299.109 111.235 299.973 111.059C300.837 110.883 301.69 110.931 302.531 111.202C303.37 111.46 304.103 111.94 304.731 112.64C305.36 113.341 305.79 114.261 306.022 115.399C306.25 116.524 306.214 117.539 305.912 118.443C305.608 119.334 305.122 120.069 304.454 120.648C303.783 121.213 303.015 121.583 302.151 121.759ZM301.653 119.31C302.27 119.185 302.683 118.829 302.893 118.244C303.1 117.644 303.113 116.906 302.935 116.028C302.753 115.136 302.452 114.462 302.03 114.005C301.608 113.547 301.089 113.382 300.472 113.507C299.841 113.636 299.42 113.993 299.211 114.578C299.015 115.161 299.008 115.898 299.19 116.79C299.368 117.668 299.663 118.344 300.074 118.817C300.495 119.275 301.022 119.439 301.653 119.31ZM309.132 120.081L307.055 109.874L316.191 108.015L318.269 118.221L315.244 118.837L313.648 110.997L310.561 111.625L312.157 119.465L309.132 120.081ZM321.719 121.462L318.871 107.469L321.34 106.967L321.751 107.933L321.834 107.916C322.159 107.479 322.545 107.093 322.991 106.759C323.449 106.409 323.945 106.179 324.48 106.071C325.714 105.819 326.785 106.094 327.691 106.896C328.594 107.683 329.206 108.866 329.527 110.444C329.765 111.61 329.761 112.646 329.517 113.553C329.273 114.46 328.867 115.2 328.298 115.773C327.739 116.33 327.09 116.683 326.349 116.834C325.91 116.923 325.467 116.921 325.019 116.826C324.568 116.718 324.13 116.529 323.703 116.258L324.137 117.863L324.744 120.847L321.719 121.462ZM325.147 114.507C325.668 114.401 326.065 114.07 326.338 113.515C326.61 112.959 326.641 112.16 326.428 111.117C326.054 109.279 325.277 108.48 324.097 108.72C323.508 108.84 322.987 109.267 322.537 110.002L323.387 114.179C323.712 114.371 324.021 114.486 324.315 114.526C324.609 114.567 324.886 114.56 325.147 114.507ZM332.745 115.275L330.667 105.068L333.589 104.474L334.167 107.313C334.271 107.821 334.36 108.403 334.437 109.059C334.51 109.701 334.584 110.343 334.658 110.985L334.719 110.973C334.82 110.624 334.946 110.227 335.098 109.781C335.248 109.322 335.367 108.926 335.457 108.594L337.232 103.732L339.989 103.171L342.067 113.378L339.145 113.972L338.566 111.133C338.46 110.611 338.371 110.03 338.297 109.387C338.237 108.742 338.17 108.099 338.097 107.456L338.015 107.473C337.911 107.809 337.786 108.213 337.64 108.685C337.504 109.142 337.383 109.53 337.277 109.852L335.502 114.714L332.745 115.275ZM350.257 111.711L349.578 108.377L348.446 108.607L347.067 112.36L343.713 113.043L345.625 108.539C345.062 108.368 344.561 108.084 344.123 107.687C343.699 107.288 343.414 106.731 343.269 106.018C343.096 105.167 343.151 104.456 343.435 103.884C343.718 103.312 344.162 102.857 344.764 102.52C345.367 102.183 346.06 101.935 346.842 101.776L351.204 100.888L353.282 111.095L350.257 111.711ZM348.196 106.537L349.164 106.34L348.632 103.726L347.665 103.923C346.567 104.147 346.102 104.67 346.27 105.493C346.353 105.905 346.559 106.213 346.886 106.418C347.211 106.609 347.648 106.648 348.196 106.537ZM358.137 110.107L356.541 102.266L353.537 102.878L353.055 100.511L362.11 98.6686L362.591 101.035L359.566 101.651L361.162 109.491L358.137 110.107ZM366.064 108.493L363.986 98.2866L366.908 97.6919L367.486 100.532C367.589 101.039 367.679 101.621 367.756 102.277C367.829 102.919 367.903 103.561 367.976 104.204L368.038 104.191C368.138 103.842 368.265 103.445 368.417 103C368.567 102.541 368.686 102.145 368.775 101.812L370.55 96.9505L373.308 96.3893L375.385 106.596L372.463 107.191L371.885 104.351C371.779 103.83 371.689 103.248 371.616 102.606C371.556 101.961 371.489 101.317 371.416 100.675L371.333 100.692C371.23 101.027 371.105 101.431 370.959 101.904C370.823 102.36 370.702 102.749 370.596 103.07L368.821 107.932L366.064 108.493ZM383.576 104.929L382.897 101.595L381.765 101.826L380.386 105.578L377.032 106.261L378.944 101.757C378.38 101.586 377.88 101.302 377.442 100.905C377.018 100.506 376.733 99.9497 376.588 99.2363C376.415 98.3857 376.47 97.6744 376.754 97.1024C377.037 96.5303 377.48 96.0758 378.083 95.7388C378.686 95.4017 379.379 95.1537 380.161 94.9945L384.523 94.1065L386.601 104.313L383.576 104.929ZM381.515 99.7549L382.482 99.5581L381.95 96.9447L380.983 97.1415C379.886 97.3649 379.421 97.8882 379.588 98.7113C379.672 99.1229 379.878 99.431 380.205 99.6358C380.53 99.8269 380.967 99.8666 381.515 99.7549Z" fill="white"/>
<path fill-rule="evenodd" clip-rule="evenodd" d="M49.2339 245.969C16.8052 261.229 -1.81942 278.1 0.140729 293.743C4.50645 328.582 109.332 344.132 234.276 328.475C359.22 312.818 456.968 271.883 452.602 237.044C450.916 223.591 434.252 213.015 407.234 206V208.067C416.439 210.484 424.374 213.311 430.862 216.511C443.078 222.536 449.655 229.613 450.618 237.293C451.58 244.972 446.952 253.453 436.601 262.306C426.322 271.097 410.82 279.874 391.158 288.108C351.859 304.566 296.372 318.678 234.028 326.49C171.683 334.303 114.43 334.318 72.2852 328.066C51.1986 324.938 34.0109 320.258 21.8806 314.275C9.6646 308.25 3.08757 301.174 2.12521 293.494C1.16284 285.814 5.79033 277.333 16.142 268.481C24.1617 261.622 35.3603 254.772 49.2339 248.181V245.969Z" fill="#0065FF"/>
<defs>
<clipPath id="clip0_309_1700">
<rect width="358" height="416" fill="white" transform="translate(46.9995 21)"/>
</clipPath>
</defs>
</svg>
