<svg width="491" height="159" viewBox="0 0 491 159" fill="none" xmlns="http://www.w3.org/2000/svg">
<g clip-path="url(#clip0_516_736)">
<path d="M243.534 17.9415H186.528L187.998 15.9628C188.77 14.9405 189.938 14.9471 190.788 14.9537C191.144 14.9953 191.504 14.9477 191.837 14.8152C192.077 14.5626 192.281 14.2786 192.444 13.9709C193.315 12.3774 194.603 11.0506 196.17 10.1323C197.852 9.14291 199.653 9.47269 200.965 9.73652C202.278 10.0003 202.852 10.0399 203.017 9.43312C203.676 6.99932 205.345 4.53254 208.043 4.88871C208.828 5.01392 209.604 5.19465 210.364 5.42955C212.64 6.08912 214.064 6.35954 214.691 4.90849C215.779 2.35598 217.844 -0.90228 223.133 0.232173C228.206 1.31386 230.389 6.86741 230.54 7.24336C231.622 9.55843 233.68 9.35397 236.068 9.10993C238.139 8.90546 240.282 8.68781 241.938 10.1718C245.486 13.3443 243.653 17.6843 243.633 17.7239L243.534 17.9415ZM187.834 17.2819H243.092C243.522 16.1487 243.598 14.9118 243.311 13.7344C243.024 12.5569 242.386 11.4942 241.483 10.6863C240.045 9.36716 238.053 9.59141 236.12 9.78928C233.7 10.0333 231.2 10.284 229.927 7.52697C229.927 7.46761 227.777 1.94045 222.995 0.931314C218.213 -0.0778218 216.399 2.69235 215.298 5.22509C214.401 7.31591 212.257 6.70911 210.186 6.12869C209.453 5.90356 208.706 5.72728 207.95 5.60104C205.094 5.22509 203.934 8.61525 203.65 9.66396C203.307 10.9171 202.113 10.6863 200.847 10.4423C199.58 10.1982 197.971 9.89481 196.507 10.7588C195.036 11.6247 193.826 12.8711 193.005 14.3667C192.809 14.7539 192.548 15.1043 192.233 15.4022C191.79 15.6425 191.282 15.7371 190.782 15.6726C189.957 15.6726 189.093 15.6726 188.526 16.4179L187.834 17.2819Z" fill="#96C0FF"/>
<path d="M408.425 30.9614H309.048L311.33 27.9142C312.603 26.2257 314.496 26.2389 316.02 26.2455C316.693 26.3342 317.378 26.2361 317.999 25.9618C318.453 25.5034 318.836 24.9786 319.133 24.4053C320.641 21.647 322.871 19.351 325.584 17.7634C328.453 16.075 331.434 16.6422 333.828 17.1039C336.222 17.5656 337.344 17.7107 337.7 16.3915C338.841 12.2231 341.657 7.98868 346.274 8.60208C347.633 8.82075 348.975 9.1337 350.291 9.53866C353.846 10.5412 356.92 11.4052 358.206 8.47676C360.086 4.08405 363.647 -1.52886 372.716 0.416864C381.449 2.28344 385.34 12.1769 385.532 12.5661C387.51 16.8071 391.369 16.4179 395.478 16.0024C399.059 15.6396 402.733 15.2703 405.582 17.803C411.67 23.2444 408.531 30.6909 408.498 30.7635L408.425 30.9614ZM310.381 30.3018H407.996C408.425 29.108 410.404 22.9938 405.127 18.2911C402.489 15.9562 398.96 16.3124 395.524 16.662C391.362 17.0775 387.062 17.5128 384.905 12.8365C384.865 12.7376 381.086 2.943 372.558 1.08962C364.03 -0.763759 360.686 4.22915 358.773 8.76037C357.282 12.2297 353.628 11.1942 350.1 10.1982C348.803 9.80177 347.481 9.49328 346.142 9.27483C340.919 8.57569 338.841 14.6965 338.326 16.5828C337.812 18.4692 335.893 18.1922 333.71 17.77C331.526 17.3479 328.578 16.7939 325.927 18.3571C323.311 19.894 321.16 22.109 319.7 24.768C319.364 25.4219 318.918 26.0131 318.381 26.5159C317.814 26.9446 316.976 26.938 316 26.9314C314.549 26.9314 312.913 26.9314 311.838 28.3363L310.381 30.3018Z" fill="#96C0FF"/>
<path d="M82.5739 90.5718H43L44.1345 89.0548C44.3782 88.7786 44.6863 88.5667 45.0314 88.4379C45.3765 88.309 45.748 88.2672 46.1132 88.316C46.3357 88.3417 46.5611 88.3169 46.7727 88.2435C46.9301 88.0784 47.0634 87.8919 47.1685 87.6894C47.7779 86.577 48.6785 85.6514 49.7737 85.0116C50.8228 84.4924 52.0298 84.3911 53.1507 84.728C54.1401 84.9127 54.3577 84.8929 54.4698 84.5895C54.9381 82.8746 56.1254 81.1268 58.0447 81.384C58.5914 81.4716 59.1314 81.5973 59.6606 81.76C61.171 82.1887 62.1142 82.4195 62.5231 81.4566C63.2882 79.6625 64.7393 77.3738 68.4592 78.1587C71.9879 78.9172 73.5247 82.7757 73.6368 83.0527C74.3492 84.5829 75.7342 84.4378 77.3436 84.2795C78.7221 84.141 80.2853 83.9827 81.4659 85.038C83.959 87.2739 82.6729 90.3145 82.6597 90.3607L82.5739 90.5718ZM44.3191 89.9122H82.1254C82.3978 89.1564 82.4385 88.3366 82.2423 87.5576C82.0461 86.7786 81.6219 86.0758 81.024 85.5393C80.0676 84.6818 78.7749 84.8137 77.4096 84.9523C75.7013 85.1171 73.9402 85.2952 73.03 83.3297C73.03 83.2901 71.5658 79.5306 68.3273 78.8381C65.0889 78.1455 63.8621 80.0253 63.1299 81.7336C62.4704 83.2572 60.8874 82.8087 59.4891 82.3931C58.9898 82.2407 58.4808 82.1217 57.9655 82.037C56.0792 81.7797 55.3273 84.0618 55.1096 84.761C54.8524 85.7174 53.9422 85.5393 53.0584 85.3744C52.0929 85.0762 51.051 85.1492 50.1365 85.5788C49.1386 86.1681 48.3183 87.0157 47.7621 88.0324C47.6224 88.3112 47.4323 88.5616 47.2014 88.7711C46.8808 88.9511 46.5107 89.0228 46.1461 88.9756C45.8798 88.9262 45.6054 88.9438 45.3475 89.0267C45.0896 89.1096 44.8564 89.2552 44.6687 89.4505L44.3191 89.9122Z" fill="#96C0FF"/>
<path d="M387.574 90.5714H348L349.134 89.0544C349.378 88.7782 349.686 88.5664 350.031 88.4375C350.377 88.3087 350.748 88.2669 351.113 88.3157C351.335 88.3428 351.56 88.3203 351.773 88.2498C351.928 88.0803 352.061 87.8919 352.168 87.6891C352.777 86.5782 353.675 85.6528 354.767 85.0113C355.818 84.4904 357.028 84.389 358.151 84.7277C359.14 84.919 359.358 84.8926 359.47 84.5892C359.938 82.8743 361.112 81.1264 363.045 81.3837C363.591 81.472 364.131 81.5976 364.661 81.7596C366.171 82.1883 367.114 82.4192 367.517 81.4562C368.288 79.6688 369.733 77.3735 373.453 78.1584C376.988 78.9169 378.525 82.7754 378.637 83.0524C379.349 84.5826 380.734 84.4441 382.337 84.2792C383.722 84.1407 385.285 83.9824 386.466 85.0377C388.959 87.2736 387.673 90.3142 387.66 90.3604L387.574 90.5714ZM349.319 89.9119H387.125C387.398 89.1561 387.439 88.3363 387.242 87.5572C387.046 86.7782 386.622 86.0755 386.024 85.5389C385.061 84.6815 383.775 84.8134 382.403 84.9519C380.701 85.1234 378.94 85.3015 378.03 83.3294C378.03 83.2898 376.566 79.5303 373.321 78.8378C370.076 78.1452 368.862 80.025 368.13 81.7332C367.47 83.2568 365.887 82.8083 364.489 82.3928C363.99 82.2403 363.481 82.1214 362.966 82.0366C361.079 81.786 360.327 84.0615 360.11 84.7672C359.852 85.717 358.942 85.5389 358.058 85.374C357.093 85.0759 356.051 85.1488 355.137 85.5785C354.139 86.1677 353.318 87.0154 352.762 88.0321C352.621 88.3119 352.431 88.5642 352.201 88.7774C351.88 88.9555 351.51 89.0249 351.146 88.9753C350.88 88.9277 350.606 88.9461 350.348 89.0289C350.091 89.1117 349.857 89.2563 349.669 89.4502L349.319 89.9119Z" fill="#96C0FF"/>
<path d="M490.689 227.533C490.58 227.533 490.476 227.49 490.4 227.413C490.323 227.337 490.28 227.233 490.28 227.124V51.3352H453.07V138.526H436.707V80.1997H410.444V169.199H394.646V116.28H383.363V171.604H375.059V119.168H364.93V171.596H347.978V163.774H322.149V95.9901H280.816V163.185H215.469V50.7297H169.047V100.637H140.6V42.8182H97.0332V174.607H85.8491V106.7H46.3321V140.931H25.0601V214.304H0.409078C0.301239 214.301 0.198399 214.258 0.122132 214.181C0.0458639 214.105 0.00209454 214.002 0 213.895C0 213.786 0.0430988 213.682 0.119816 213.605C0.196533 213.529 0.300584 213.485 0.409078 213.485H24.201V140.113H45.514V105.841H86.6672V173.748H96.2151V42H141.418V99.8272H168.254V49.9197H216.312V162.367H280.022V95.1719H322.967V162.964H348.796V170.786H364.112V118.35H375.877V170.778H382.545V115.462H395.464V168.38H409.626V79.3815H437.517V137.708H452.244V50.517H491.098V227.165C491.088 227.266 491.04 227.36 490.964 227.428C490.889 227.496 490.791 227.534 490.689 227.533Z" fill="#96C0FF"/>
<path d="M108.553 114.472H103.128V107.641H108.553V114.472ZM103.947 113.654H107.735V108.459H103.947V113.654Z" fill="#96C0FF"/>
<path d="M116.055 114.472H110.623V107.641H116.055V114.472ZM111.441 113.654H115.237V108.459H111.441V113.654Z" fill="#96C0FF"/>
<path d="M123.534 114.472H118.109V107.641H123.534V114.472ZM118.928 113.654H122.716V108.459H118.928V113.654Z" fill="#96C0FF"/>
<path d="M131.028 114.472H125.596V107.641H131.028V114.472ZM126.414 113.654H130.21V108.459H126.414V113.654Z" fill="#96C0FF"/>
<path d="M108.553 103.623H103.128V96.7917H108.553V103.623ZM103.947 102.805H107.735V97.6099H103.947V102.805Z" fill="#96C0FF"/>
<path d="M116.055 103.623H110.623V96.7917H116.055V103.623ZM111.441 102.805H115.237V97.6099H111.441V102.805Z" fill="#96C0FF"/>
<path d="M123.534 103.623H118.109V96.7917H123.534V103.623ZM118.928 102.805H122.716V97.6099H118.928V102.805Z" fill="#96C0FF"/>
<path d="M131.028 103.623H125.596V96.7917H131.028V103.623ZM126.414 102.805H130.21V97.6099H126.414V102.805Z" fill="#96C0FF"/>
<path d="M108.553 92.8238H103.128V85.9922H108.553V92.8238ZM103.947 92.0056H107.735V86.8103H103.947V92.0056Z" fill="#96C0FF"/>
<path d="M116.055 92.8238H110.623V85.9922H116.055V92.8238ZM111.441 92.0056H115.237V86.8103H111.441V92.0056Z" fill="#96C0FF"/>
<path d="M123.534 92.8238H118.109V85.9922H123.534V92.8238ZM118.928 92.0056H122.716V86.8103H118.928V92.0056Z" fill="#96C0FF"/>
<path d="M131.028 92.8238H125.596V85.9922H131.028V92.8238ZM126.414 92.0056H130.21V86.8103H126.414V92.0056Z" fill="#96C0FF"/>
<path d="M108.553 81.9996H103.128V75.168H108.553V81.9996ZM103.947 81.1814H107.735V75.9861H103.947V81.1814Z" fill="#96C0FF"/>
<path d="M116.055 81.9996H110.623V75.168H116.055V81.9996ZM111.441 81.1814H115.237V75.9861H111.441V81.1814Z" fill="#96C0FF"/>
<path d="M123.534 81.9996H118.109V75.168H123.534V81.9996ZM118.928 81.1814H122.716V75.9861H118.928V81.1814Z" fill="#96C0FF"/>
<path d="M131.028 81.9996H125.596V75.168H131.028V81.9996ZM126.414 81.1814H130.21V75.9861H126.414V81.1814Z" fill="#96C0FF"/>
<path d="M108.553 71.1755H103.128V64.3521H108.553V71.1755ZM103.947 70.3573H107.735V65.1702H103.947V70.3573Z" fill="#96C0FF"/>
<path d="M116.055 71.1755H110.623V64.3521H116.055V71.1755ZM111.441 70.3573H115.237V65.1702H111.441V70.3573Z" fill="#96C0FF"/>
<path d="M123.534 71.1755H118.109V64.3521H123.534V71.1755ZM118.928 70.3573H122.716V65.1702H118.928V70.3573Z" fill="#96C0FF"/>
<path d="M131.028 71.1755H125.596V64.3521H131.028V71.1755ZM126.414 70.3573H130.21V65.1702H126.414V70.3573Z" fill="#96C0FF"/>
<path d="M138.515 114.472H133.091V107.641H138.515V114.472ZM133.909 113.654H137.697V108.459H133.909V113.654Z" fill="#96C0FF"/>
<path d="M145.999 114.472H140.599V107.641H146.023L145.999 114.472ZM141.393 113.654H145.181V108.459H141.417L141.393 113.654Z" fill="#96C0FF"/>
<path d="M108.553 126.532H103.128V119.7H108.553V126.532ZM103.947 125.714H107.735V120.518H103.947V125.714Z" fill="#96C0FF"/>
<path d="M116.055 126.532H110.623V119.7H116.055V126.532ZM111.441 125.714H115.237V120.518H111.441V125.714Z" fill="#96C0FF"/>
<path d="M123.534 126.532H118.109V119.7H123.534V126.532ZM118.928 125.714H122.716V120.518H118.928V125.714Z" fill="#96C0FF"/>
<path d="M131.028 126.532H125.596V119.7H131.028V126.532ZM126.414 125.714H130.21V120.518H126.414V125.714Z" fill="#96C0FF"/>
<path d="M138.515 126.532H133.091V119.7H138.515V126.532ZM133.909 125.714H137.697V120.518H133.909V125.714Z" fill="#96C0FF"/>
<path d="M145.999 126.532H140.599V119.7H146.023L145.999 126.532ZM141.417 125.714H145.205V120.518H141.417V125.714Z" fill="#96C0FF"/>
<path d="M472.084 69.9727H466.66V63.1411H472.084V69.9727ZM467.478 69.1546H471.266V63.9593H467.478V69.1546Z" fill="#96C0FF"/>
<path d="M479.579 69.9727H474.146V63.1411H479.579V69.9727ZM474.965 69.1546H478.761V63.9593H474.965V69.1546Z" fill="#96C0FF"/>
<path d="M487.063 69.9727H481.639V63.1411H487.063V69.9727ZM482.457 69.1546H486.245V63.9593H482.457V69.1546Z" fill="#96C0FF"/>
<path d="M472.084 85.0103H466.66V78.1787H472.084V85.0103ZM467.478 84.1922H471.266V78.9969H467.478V84.1922Z" fill="#96C0FF"/>
<path d="M479.579 85.0103H474.146V78.1787H479.579V85.0103ZM474.965 84.1922H478.761V78.9969H474.965V84.1922Z" fill="#96C0FF"/>
<path d="M487.063 85.0103H481.639V78.1787H487.063V85.0103ZM482.457 84.1922H486.245V78.9969H482.457V84.1922Z" fill="#96C0FF"/>
<path d="M472.084 100.04H466.66V93.2083H472.084V100.04ZM467.478 99.2217H471.266V94.0264H467.478V99.2217Z" fill="#96C0FF"/>
<path d="M479.579 100.04H474.146V93.2083H479.579V100.04ZM474.965 99.2217H478.761V94.0264H474.965V99.2217Z" fill="#96C0FF"/>
<path d="M487.063 100.04H481.639V93.2083H487.063V100.04ZM482.457 99.2217H486.245V94.0264H482.457V99.2217Z" fill="#96C0FF"/>
<path d="M472.084 115.078H466.66V108.246H472.084V115.078ZM467.478 114.26H471.266V109.064H467.478V114.26Z" fill="#96C0FF"/>
<path d="M479.579 115.078H474.146V108.246H479.579V115.078ZM474.965 114.26H478.761V109.064H474.965V114.26Z" fill="#96C0FF"/>
<path d="M487.063 115.078H481.639V108.246H487.063V115.078ZM482.457 114.26H486.245V109.064H482.457V114.26Z" fill="#96C0FF"/>
<path d="M472.084 130.107H466.66V123.259H472.084V130.107ZM467.478 129.289H471.266V124.077H467.478V129.289Z" fill="#96C0FF"/>
<path d="M479.579 130.107H474.146V123.259H479.579V130.107ZM474.965 129.289H478.761V124.077H474.965V129.289Z" fill="#96C0FF"/>
<path d="M487.063 130.107H481.639V123.259H487.063V130.107ZM482.457 129.289H486.245V124.077H482.457V129.289Z" fill="#96C0FF"/>
<path d="M472.084 145.145H466.66V138.313H472.084V145.145ZM467.478 144.327H471.266V139.131H467.478V144.327Z" fill="#96C0FF"/>
<path d="M479.579 145.145H474.146V138.313H479.579V145.145ZM474.965 144.327H478.761V139.131H474.965V144.327Z" fill="#96C0FF"/>
<path d="M487.063 145.145H481.639V138.313H487.063V145.145ZM482.457 144.327H486.245V139.131H482.457V144.327Z" fill="#96C0FF"/>
<path d="M472.084 160.174H466.66V153.343H472.084V160.174ZM467.478 159.356H471.266V154.161H467.478V159.356Z" fill="#96C0FF"/>
<path d="M479.579 160.174H474.146V153.343H479.579V160.174ZM474.965 159.356H478.761V154.161H474.965V159.356Z" fill="#96C0FF"/>
<path d="M487.063 160.174H481.639V153.343H487.063V160.174ZM482.457 159.356H486.245V154.161H482.457V159.356Z" fill="#96C0FF"/>
<path d="M423.053 100.04H417.628V93.2083H423.053V100.04ZM418.446 99.2217H422.234V94.0264H418.446V99.2217Z" fill="#96C0FF"/>
<path d="M430.537 100.04H425.113V93.2083H430.537V100.04ZM425.931 99.2217H429.719V94.0264H425.931V99.2217Z" fill="#96C0FF"/>
<path d="M423.053 115.078H417.628V108.246H423.053V115.078ZM418.446 114.26H422.234V109.064H418.446V114.26Z" fill="#96C0FF"/>
<path d="M430.537 115.078H425.113V108.246H430.537V115.078ZM425.931 114.26H429.719V109.064H425.931V114.26Z" fill="#96C0FF"/>
<path d="M423.053 130.107H417.628V123.259H423.053V130.107ZM418.446 129.289H422.234V124.077H418.446V129.289Z" fill="#96C0FF"/>
<path d="M430.537 130.107H425.113V123.259H430.537V130.107ZM425.931 129.289H429.719V124.077H425.931V129.289Z" fill="#96C0FF"/>
<path d="M423.053 145.145H417.628V138.313H423.053V145.145ZM418.446 144.327H422.234V139.131H418.446V144.327Z" fill="#96C0FF"/>
<path d="M430.537 145.145H425.113V138.313H430.537V145.145ZM425.931 144.327H429.719V139.131H425.931V144.327Z" fill="#96C0FF"/>
<path d="M423.053 160.174H417.628V153.343H423.053V160.174ZM418.446 159.356H422.234V154.161H418.446V159.356Z" fill="#96C0FF"/>
<path d="M430.537 160.174H425.113V153.343H430.537V160.174ZM425.931 159.356H429.719V154.161H425.931V159.356Z" fill="#96C0FF"/>
<path d="M291.05 115.078H285.625V108.246H291.05V115.078ZM286.444 114.26H290.232V109.064H286.444V114.26Z" fill="#96C0FF"/>
<path d="M298.544 115.078H293.112V108.246H298.544V115.078ZM293.93 114.26H297.726V109.064H293.93V114.26Z" fill="#96C0FF"/>
<path d="M291.05 130.107H285.625V123.259H291.05V130.107ZM286.444 129.289H290.232V124.077H286.444V129.289Z" fill="#96C0FF"/>
<path d="M298.544 130.107H293.112V123.259H298.544V130.107ZM293.93 129.289H297.726V124.077H293.93V129.289Z" fill="#96C0FF"/>
<path d="M291.05 145.145H285.625V138.313H291.05V145.145ZM286.444 144.327H290.232V139.131H286.444V144.327Z" fill="#96C0FF"/>
<path d="M298.544 145.145H293.112V138.313H298.544V145.145ZM293.93 144.327H297.726V139.131H293.93V144.327Z" fill="#96C0FF"/>
<path d="M291.05 160.174H285.625V153.343H291.05V160.174ZM286.444 159.356H290.232V154.161H286.444V159.356Z" fill="#96C0FF"/>
<path d="M298.544 160.174H293.112V153.343H298.544V160.174ZM293.93 159.356H297.726V154.161H293.93V159.356Z" fill="#96C0FF"/>
<path d="M308.01 115.078H302.594V108.246H308.018L308.01 115.078ZM303.412 114.26H307.2V109.064H303.412V114.26Z" fill="#96C0FF"/>
<path d="M315.505 115.078H310.072V108.246H315.505V115.078ZM310.89 114.26H314.687V109.064H310.89V114.26Z" fill="#96C0FF"/>
<path d="M308.01 130.107H302.594V123.259H308.018L308.01 130.107ZM303.404 129.289H307.192V124.077H303.412L303.404 129.289Z" fill="#96C0FF"/>
<path d="M315.505 130.107H310.072V123.259H315.505V130.107ZM310.89 129.289H314.687V124.077H310.89V129.289Z" fill="#96C0FF"/>
<path d="M308.01 145.145H302.594V138.313H308.018L308.01 145.145ZM303.404 144.327H307.192V139.131H303.412L303.404 144.327Z" fill="#96C0FF"/>
<path d="M315.505 145.145H310.072V138.313H315.505V145.145ZM310.89 144.327H314.687V139.131H310.89V144.327Z" fill="#96C0FF"/>
<path d="M308.01 160.174H302.594V153.343H308.018L308.01 160.174ZM303.404 159.356H307.192V154.161H303.412L303.404 159.356Z" fill="#96C0FF"/>
<path d="M315.505 160.174H310.072V153.343H315.505V160.174ZM310.89 159.356H314.687V154.161H310.89V159.356Z" fill="#96C0FF"/>
<path d="M190.285 69.9727H184.861V63.1411H190.285V69.9727ZM185.679 69.1546H189.467V63.9593H185.679V69.1546Z" fill="#96C0FF"/>
<path d="M197.772 69.9727H192.347V63.1411H197.772V69.9727ZM193.166 69.1546H196.954V63.9593H193.166V69.1546Z" fill="#96C0FF"/>
<path d="M190.285 85.0103H184.861V78.1787H190.285V85.0103ZM185.679 84.1922H189.467V78.9969H185.679V84.1922Z" fill="#96C0FF"/>
<path d="M197.772 85.0103H192.347V78.1787H197.772V85.0103ZM193.166 84.1922H196.954V78.9969H193.166V84.1922Z" fill="#96C0FF"/>
<path d="M190.285 100.04H184.861V93.2083H190.285V100.04ZM185.679 99.2217H189.467V94.0264H185.679V99.2217Z" fill="#96C0FF"/>
<path d="M197.772 100.04H192.347V93.2083H197.772V100.04ZM193.166 99.2217H196.954V94.0264H193.166V99.2217Z" fill="#96C0FF"/>
<path d="M190.285 115.078H184.861V108.246H190.285V115.078ZM185.679 114.26H189.467V109.064H185.679V114.26Z" fill="#96C0FF"/>
<path d="M197.772 115.078H192.347V108.246H197.772V115.078ZM193.166 114.26H196.954V109.064H193.166V114.26Z" fill="#96C0FF"/>
<path d="M190.285 130.107H184.861V123.259H190.285V130.107ZM185.679 129.289H189.467V124.077H185.679V129.289Z" fill="#96C0FF"/>
<path d="M197.772 130.107H192.347V123.259H197.772V130.107ZM193.166 129.289H196.954V124.077H193.166V129.289Z" fill="#96C0FF"/>
<path d="M190.285 145.145H184.861V138.313H190.285V145.145ZM185.679 144.327H189.467V139.131H185.679V144.327Z" fill="#96C0FF"/>
<path d="M197.772 145.145H192.347V138.313H197.772V145.145ZM193.166 144.327H196.954V139.131H193.166V144.327Z" fill="#96C0FF"/>
<path d="M190.285 160.174H184.861V153.343H190.285V160.174ZM185.679 159.356H189.467V154.161H185.679V159.356Z" fill="#96C0FF"/>
<path d="M197.772 160.174H192.347V153.343H197.772V160.174ZM193.166 159.356H196.954V154.161H193.166V159.356Z" fill="#96C0FF"/>
<path d="M36.4244 151.832H31V145H36.4244V151.832ZM31.8182 151.013H35.6062V145.818H31.8182V151.013Z" fill="#96C0FF"/>
<path d="M43.9109 151.832H38.4866V145H43.9109V151.832ZM39.3047 151.013H43.0928V145.818H39.3047V151.013Z" fill="#96C0FF"/>
<path d="M51.4037 151.832H45.9712V145H51.4037V151.832ZM46.7893 151.013H50.5856V145.818H46.7893V151.013Z" fill="#96C0FF"/>
<path d="M58.888 151.832H53.4636V145H58.888V151.832ZM54.2818 151.013H58.0698V145.818H54.2818V151.013Z" fill="#96C0FF"/>
<path d="M66.3847 151.832H60.9521V145H66.3847V151.832ZM61.7703 151.013H65.5665V145.818H61.7703V151.013Z" fill="#96C0FF"/>
<path d="M73.8712 151.832H68.4468V145H73.8712V151.832ZM69.2649 151.013H73.053V145.818H69.2649V151.013Z" fill="#96C0FF"/>
</g>
<defs>
<clipPath id="clip0_516_736">
<rect width="491" height="159" fill="white"/>
</clipPath>
</defs>
</svg>
