<svg width="18" height="15" viewBox="0 0 18 15" fill="none" xmlns="http://www.w3.org/2000/svg">
<path fill-rule="evenodd" clip-rule="evenodd" d="M0.0922852 5.0298C0.0922852 2.3293 2.46143 0.25 5.24229 0.25C6.67576 0.25 7.93713 0.922139 8.84229 1.79183C9.74745 0.922139 11.0088 0.25 12.4423 0.25C15.2231 0.25 17.5923 2.3293 17.5923 5.0298C17.5923 6.87967 16.8034 8.50644 15.7105 9.88154C14.6194 11.2543 13.1922 12.4193 11.8258 13.366C11.3038 13.7276 10.7758 14.0611 10.2926 14.3072C9.83879 14.5383 9.31703 14.75 8.84229 14.75C8.36754 14.75 7.84578 14.5383 7.39202 14.3072C6.90877 14.0611 6.38075 13.7276 5.85882 13.366C4.49234 12.4193 3.06516 11.2543 1.97411 9.88154C0.881166 8.50644 0.0922852 6.87967 0.0922852 5.0298ZM5.24229 1.75C3.16304 1.75 1.59229 3.2791 1.59229 5.0298C1.59229 6.43329 2.18807 7.74 3.14838 8.94822C4.11057 10.1588 5.40521 11.2269 6.71303 12.133C7.2079 12.4758 7.67403 12.7675 8.07274 12.9706C8.50093 13.1886 8.74895 13.25 8.84229 13.25C8.93562 13.25 9.18364 13.1886 9.61183 12.9706C10.0105 12.7675 10.4767 12.4758 10.9715 12.133C12.2794 11.2269 13.574 10.1588 14.5362 8.94822C15.4965 7.74 16.0923 6.43329 16.0923 5.0298C16.0923 3.2791 14.5215 1.75 12.4423 1.75C11.2481 1.75 10.1331 2.46342 9.43685 3.36892C9.29488 3.55356 9.07519 3.66176 8.84229 3.66176C8.60938 3.66176 8.38969 3.55356 8.24772 3.36892C7.55149 2.46342 6.43644 1.75 5.24229 1.75Z" fill="#0065FF"/>
</svg>
