<svg width="92" height="34" viewBox="0 0 92 34" fill="none" xmlns="http://www.w3.org/2000/svg">
<path d="M1.536 24.5V7.58H5.952V14.828H6L12.576 7.58H17.808L10.272 15.62L18.072 24.5H12.816L6 16.868H5.952V24.5H1.536ZM18.6219 24.5V7.58H30.5739V10.988H22.8459V14.204H30.0219V17.612H22.8459V21.092H30.5739V24.5H18.6219ZM37.4653 24.5V11.18H32.0893V7.58H47.2573V11.18H41.8813V24.5H37.4653ZM53.2388 24.5V11.18H47.8628V7.58H63.0308V11.18H57.6548V24.5H53.2388ZM64.7001 24.5V7.58H69.1161V24.5H64.7001ZM72.1766 24.5V7.58H76.5926V14.828H76.6406L83.2166 7.58H88.4486L80.9126 15.62L88.7126 24.5H83.4566L76.6406 16.868H76.5926V24.5H72.1766Z" fill="#0065FF"/>
</svg>
